<svg xmlns="http://www.w3.org/2000/svg" width="1240" height="793" viewBox="0 0 1240 793">
  <g id="Grupo_1099863" data-name="Grupo 1099863" transform="translate(-180.333 -435)">
    <rect id="Rectángulo_388651" data-name="Rectángulo 388651" width="1240" height="793" rx="20" transform="translate(180.333 435)" fill="#f3faff"/>
    <g id="Sintesis" transform="translate(590.219 489.195)">
      <rect id="Rectángulo_401426" data-name="Rectángulo 401426" width="418.047" height="82.039" fill="#a1c0f9"/>
      <path id="Trazado_874008" data-name="Trazado 874008" d="M19.347,22H17.53l-1.484-3.926H10.108L8.712,22H6.886L12.257,8h1.7Zm-3.838-5.4-2.2-5.967A5.713,5.713,0,0,1,13.1,9.7h-.039a5.231,5.231,0,0,1-.225.938L10.655,16.6Zm5.078,5.039V19.92a4.74,4.74,0,0,0,2.881.967q2.109,0,2.109-1.406A1.22,1.22,0,0,0,25.4,18.8a1.8,1.8,0,0,0-.488-.493,3.758,3.758,0,0,0-.723-.386q-.415-.171-.894-.356a11.508,11.508,0,0,1-1.167-.532,3.525,3.525,0,0,1-.84-.605,2.253,2.253,0,0,1-.508-.767,2.712,2.712,0,0,1-.171-1.006,2.389,2.389,0,0,1,.322-1.245,2.858,2.858,0,0,1,.859-.908,4.007,4.007,0,0,1,1.226-.552,5.436,5.436,0,0,1,1.421-.186,5.737,5.737,0,0,1,2.324.449v1.621a4.53,4.53,0,0,0-2.539-.723,2.968,2.968,0,0,0-.811.1,1.984,1.984,0,0,0-.62.288,1.331,1.331,0,0,0-.4.444,1.17,1.17,0,0,0-.142.571,1.37,1.37,0,0,0,.142.654,1.44,1.44,0,0,0,.415.469,3.172,3.172,0,0,0,.664.371q.391.166.889.361a12.368,12.368,0,0,1,1.191.522,4.086,4.086,0,0,1,.9.605,2.366,2.366,0,0,1,.571.776,2.5,2.5,0,0,1,.2,1.045,2.464,2.464,0,0,1-.327,1.289,2.8,2.8,0,0,1-.874.908,4,4,0,0,1-1.26.537,6.22,6.22,0,0,1-1.494.176A5.674,5.674,0,0,1,20.587,21.639Zm10.732-1.084H31.28V26.6h-1.6V12h1.6v1.758h.039a3.787,3.787,0,0,1,3.457-1.992,3.662,3.662,0,0,1,3.018,1.343,5.562,5.562,0,0,1,1.084,3.6,6.2,6.2,0,0,1-1.221,4.019,4.064,4.064,0,0,1-3.34,1.509A3.346,3.346,0,0,1,31.319,20.555Zm-.039-4.033v1.4a2.973,2.973,0,0,0,.806,2.1,2.874,2.874,0,0,0,4.326-.249,5.107,5.107,0,0,0,.825-3.1,4.032,4.032,0,0,0-.771-2.617,2.553,2.553,0,0,0-2.09-.947,2.838,2.838,0,0,0-2.246.972A3.568,3.568,0,0,0,31.28,16.521Zm18.193.879H42.413a3.74,3.74,0,0,0,.9,2.578,3.1,3.1,0,0,0,2.363.908,4.913,4.913,0,0,0,3.105-1.113v1.5a5.8,5.8,0,0,1-3.486.957,4.227,4.227,0,0,1-3.33-1.362,5.576,5.576,0,0,1-1.211-3.833,5.468,5.468,0,0,1,1.323-3.8,4.243,4.243,0,0,1,3.286-1.47,3.76,3.76,0,0,1,3.037,1.27,5.293,5.293,0,0,1,1.074,3.525Zm-1.641-1.357a3.259,3.259,0,0,0-.669-2.158,2.279,2.279,0,0,0-1.831-.771,2.587,2.587,0,0,0-1.924.811,3.678,3.678,0,0,0-.977,2.119Zm10.879,5.5a5.2,5.2,0,0,1-2.734.693,4.527,4.527,0,0,1-3.452-1.392,5.043,5.043,0,0,1-1.313-3.608,5.544,5.544,0,0,1,1.416-3.97,4.954,4.954,0,0,1,3.779-1.5,5.261,5.261,0,0,1,2.324.488v1.641a4.072,4.072,0,0,0-2.383-.781,3.22,3.22,0,0,0-2.515,1.1,4.169,4.169,0,0,0-.981,2.886,3.969,3.969,0,0,0,.923,2.773,3.181,3.181,0,0,0,2.476,1.016,4.014,4.014,0,0,0,2.461-.869Zm7.061.361a3.088,3.088,0,0,1-1.494.313q-2.627,0-2.627-2.93V13.367H59.933V12h1.719V9.559l1.6-.518V12h2.52v1.367h-2.52V19a2.336,2.336,0,0,0,.342,1.436,1.364,1.364,0,0,0,1.133.43,1.684,1.684,0,0,0,1.045-.332Zm6.318.332a4.638,4.638,0,0,1-3.54-1.4,5.191,5.191,0,0,1-1.323-3.716A5.407,5.407,0,0,1,68.6,13.182a4.95,4.95,0,0,1,3.721-1.416,4.485,4.485,0,0,1,3.491,1.377,5.46,5.46,0,0,1,1.255,3.818,5.372,5.372,0,0,1-1.353,3.833A4.739,4.739,0,0,1,72.091,22.234Zm.117-9.121a3.046,3.046,0,0,0-2.441,1.05,4.312,4.312,0,0,0-.9,2.9,4.078,4.078,0,0,0,.908,2.8,3.087,3.087,0,0,0,2.432,1.025A2.928,2.928,0,0,0,74.6,19.881a4.365,4.365,0,0,0,.835-2.861,4.44,4.44,0,0,0-.835-2.891A2.915,2.915,0,0,0,72.208,13.113Zm6.816,8.525V19.92a4.74,4.74,0,0,0,2.881.967q2.109,0,2.109-1.406a1.22,1.22,0,0,0-.181-.679,1.8,1.8,0,0,0-.488-.493,3.758,3.758,0,0,0-.723-.386q-.415-.171-.894-.356a11.508,11.508,0,0,1-1.167-.532,3.525,3.525,0,0,1-.84-.605,2.253,2.253,0,0,1-.508-.767,2.712,2.712,0,0,1-.171-1.006,2.389,2.389,0,0,1,.322-1.245,2.858,2.858,0,0,1,.859-.908,4.007,4.007,0,0,1,1.226-.552,5.436,5.436,0,0,1,1.421-.186,5.737,5.737,0,0,1,2.324.449v1.621a4.53,4.53,0,0,0-2.539-.723,2.968,2.968,0,0,0-.811.1,1.984,1.984,0,0,0-.62.288,1.331,1.331,0,0,0-.4.444,1.171,1.171,0,0,0-.142.571,1.37,1.37,0,0,0,.142.654,1.44,1.44,0,0,0,.415.469,3.172,3.172,0,0,0,.664.371q.391.166.889.361a12.368,12.368,0,0,1,1.191.522,4.086,4.086,0,0,1,.9.605,2.366,2.366,0,0,1,.571.776,2.5,2.5,0,0,1,.2,1.045,2.464,2.464,0,0,1-.327,1.289,2.8,2.8,0,0,1-.874.908,4,4,0,0,1-1.26.537,6.22,6.22,0,0,1-1.494.176A5.674,5.674,0,0,1,79.024,21.639Zm16.211-1.084H95.2V26.6h-1.6V12h1.6v1.758h.039a3.787,3.787,0,0,1,3.457-1.992,3.662,3.662,0,0,1,3.018,1.343,5.562,5.562,0,0,1,1.084,3.6,6.2,6.2,0,0,1-1.221,4.019,4.064,4.064,0,0,1-3.34,1.509A3.346,3.346,0,0,1,95.235,20.555ZM95.2,16.521v1.4a2.973,2.973,0,0,0,.806,2.1,2.874,2.874,0,0,0,4.326-.249,5.107,5.107,0,0,0,.825-3.1,4.032,4.032,0,0,0-.771-2.617,2.553,2.553,0,0,0-2.09-.947,2.838,2.838,0,0,0-2.246.972A3.568,3.568,0,0,0,95.2,16.521Zm15.371-2.9a1.958,1.958,0,0,0-1.211-.322,2.044,2.044,0,0,0-1.714.967,4.47,4.47,0,0,0-.688,2.637V22h-1.6V12h1.6v2.061h.039a3.492,3.492,0,0,1,1.045-1.646,2.383,2.383,0,0,1,1.572-.591,2.615,2.615,0,0,1,.957.137Zm9.775,3.779h-7.061a3.74,3.74,0,0,0,.9,2.578,3.1,3.1,0,0,0,2.363.908,4.913,4.913,0,0,0,3.105-1.113v1.5a5.8,5.8,0,0,1-3.486.957,4.227,4.227,0,0,1-3.33-1.362,5.576,5.576,0,0,1-1.211-3.833,5.468,5.468,0,0,1,1.323-3.8,4.243,4.243,0,0,1,3.286-1.47,3.76,3.76,0,0,1,3.037,1.27,5.293,5.293,0,0,1,1.074,3.525ZM118.7,16.043a3.259,3.259,0,0,0-.669-2.158,2.279,2.279,0,0,0-1.831-.771,2.587,2.587,0,0,0-1.924.811,3.678,3.678,0,0,0-.977,2.119ZM130.626,12l-3.984,10h-1.572L121.28,12h1.758l2.539,7.266a6.521,6.521,0,0,1,.352,1.4h.039a6.6,6.6,0,0,1,.313-1.357l2.656-7.3Zm2.539-2.539a1.015,1.015,0,0,1-.732-.293.989.989,0,0,1-.3-.742,1.026,1.026,0,0,1,1.035-1.045,1.034,1.034,0,0,1,.747.3,1.043,1.043,0,0,1,0,1.479A1.025,1.025,0,0,1,133.165,9.461ZM133.946,22h-1.6V12h1.6Zm7.422.234a4.638,4.638,0,0,1-3.54-1.4,5.191,5.191,0,0,1-1.323-3.716,5.407,5.407,0,0,1,1.377-3.936,4.95,4.95,0,0,1,3.721-1.416,4.485,4.485,0,0,1,3.491,1.377,5.46,5.46,0,0,1,1.255,3.818A5.372,5.372,0,0,1,145,20.794,4.739,4.739,0,0,1,141.368,22.234Zm.117-9.121a3.046,3.046,0,0,0-2.441,1.05,4.312,4.312,0,0,0-.9,2.9,4.078,4.078,0,0,0,.908,2.8,3.087,3.087,0,0,0,2.432,1.025,2.928,2.928,0,0,0,2.388-1.006,4.365,4.365,0,0,0,.835-2.861,4.44,4.44,0,0,0-.835-2.891A2.915,2.915,0,0,0,141.485,13.113Zm6.816,8.525V19.92a4.74,4.74,0,0,0,2.881.967q2.109,0,2.109-1.406a1.22,1.22,0,0,0-.181-.679,1.8,1.8,0,0,0-.488-.493,3.759,3.759,0,0,0-.723-.386q-.415-.171-.894-.356a11.508,11.508,0,0,1-1.167-.532,3.526,3.526,0,0,1-.84-.605,2.253,2.253,0,0,1-.508-.767,2.712,2.712,0,0,1-.171-1.006,2.389,2.389,0,0,1,.322-1.245,2.858,2.858,0,0,1,.859-.908,4.007,4.007,0,0,1,1.226-.552,5.436,5.436,0,0,1,1.421-.186,5.737,5.737,0,0,1,2.324.449v1.621a4.53,4.53,0,0,0-2.539-.723,2.968,2.968,0,0,0-.811.1,1.984,1.984,0,0,0-.62.288,1.331,1.331,0,0,0-.4.444,1.17,1.17,0,0,0-.142.571,1.37,1.37,0,0,0,.142.654,1.44,1.44,0,0,0,.415.469,3.172,3.172,0,0,0,.664.371q.391.166.889.361a12.369,12.369,0,0,1,1.191.522,4.086,4.086,0,0,1,.9.605,2.366,2.366,0,0,1,.571.776,2.5,2.5,0,0,1,.2,1.045,2.464,2.464,0,0,1-.327,1.289,2.8,2.8,0,0,1-.874.908,4,4,0,0,1-1.26.537,6.22,6.22,0,0,1-1.494.176A5.674,5.674,0,0,1,148.3,21.639ZM170.03,22h-1.6V20.438h-.039a3.353,3.353,0,0,1-3.076,1.8,3.288,3.288,0,0,1-2.339-.791,2.741,2.741,0,0,1-.845-2.1q0-2.8,3.3-3.262l3-.42q0-2.549-2.061-2.549a4.923,4.923,0,0,0-3.262,1.23V12.7a6.2,6.2,0,0,1,3.4-.937q3.525,0,3.525,3.73Zm-1.6-5.059-2.412.332a3.916,3.916,0,0,0-1.68.552,1.591,1.591,0,0,0-.566,1.4,1.526,1.526,0,0,0,.522,1.2,2.019,2.019,0,0,0,1.392.464,2.571,2.571,0,0,0,1.968-.835,2.983,2.983,0,0,0,.776-2.114ZM174.649,22h-1.6V7.2h1.6Zm22.92,0h-1.6V16.258a4.332,4.332,0,0,0-.513-2.4,1.944,1.944,0,0,0-1.724-.742,2.134,2.134,0,0,0-1.743.938,3.586,3.586,0,0,0-.718,2.246V22h-1.6V16.063q0-2.949-2.275-2.949a2.108,2.108,0,0,0-1.738.884,3.653,3.653,0,0,0-.684,2.3V22h-1.6V12h1.6v1.582h.039a3.4,3.4,0,0,1,3.105-1.816,2.888,2.888,0,0,1,2.832,2.07,3.569,3.569,0,0,1,3.32-2.07q3.3,0,3.3,4.072Zm11.113,0h-1.6V20.418h-.039a3.289,3.289,0,0,1-3.086,1.816q-3.574,0-3.574-4.258V12h1.592v5.723q0,3.164,2.422,3.164a2.45,2.45,0,0,0,1.929-.864,3.307,3.307,0,0,0,.757-2.261V12h1.6Zm11.27-4.6h-7.061a3.74,3.74,0,0,0,.9,2.578,3.1,3.1,0,0,0,2.363.908,4.913,4.913,0,0,0,3.105-1.113v1.5a5.8,5.8,0,0,1-3.486.957,4.227,4.227,0,0,1-3.33-1.362,5.576,5.576,0,0,1-1.211-3.833,5.468,5.468,0,0,1,1.323-3.8,4.243,4.243,0,0,1,3.286-1.47,3.76,3.76,0,0,1,3.037,1.27,5.293,5.293,0,0,1,1.074,3.525Zm-1.641-1.357a3.259,3.259,0,0,0-.669-2.158,2.279,2.279,0,0,0-1.831-.771,2.587,2.587,0,0,0-1.924.811,3.678,3.678,0,0,0-.977,2.119Zm3.457,5.6V19.92a4.74,4.74,0,0,0,2.881.967q2.109,0,2.109-1.406a1.22,1.22,0,0,0-.181-.679,1.8,1.8,0,0,0-.488-.493,3.759,3.759,0,0,0-.723-.386q-.415-.171-.894-.356a11.508,11.508,0,0,1-1.167-.532,3.526,3.526,0,0,1-.84-.605,2.253,2.253,0,0,1-.508-.767,2.712,2.712,0,0,1-.171-1.006,2.389,2.389,0,0,1,.322-1.245,2.858,2.858,0,0,1,.859-.908,4.007,4.007,0,0,1,1.226-.552,5.436,5.436,0,0,1,1.421-.186,5.737,5.737,0,0,1,2.324.449v1.621a4.53,4.53,0,0,0-2.539-.723,2.968,2.968,0,0,0-.811.1,1.984,1.984,0,0,0-.62.288,1.331,1.331,0,0,0-.4.444,1.17,1.17,0,0,0-.142.571,1.37,1.37,0,0,0,.142.654,1.44,1.44,0,0,0,.415.469,3.172,3.172,0,0,0,.664.371q.391.166.889.361a12.369,12.369,0,0,1,1.191.522,4.086,4.086,0,0,1,.9.605,2.366,2.366,0,0,1,.571.776,2.5,2.5,0,0,1,.2,1.045,2.464,2.464,0,0,1-.327,1.289,2.8,2.8,0,0,1-.874.908,4,4,0,0,1-1.26.537,6.22,6.22,0,0,1-1.494.176A5.674,5.674,0,0,1,221.769,21.639Zm13.73.264a3.088,3.088,0,0,1-1.494.313q-2.627,0-2.627-2.93V13.367h-1.719V12h1.719V9.559l1.6-.518V12h2.52v1.367h-2.52V19a2.336,2.336,0,0,0,.342,1.436,1.364,1.364,0,0,0,1.133.43,1.684,1.684,0,0,0,1.045-.332Zm7.354-8.281a1.958,1.958,0,0,0-1.211-.322,2.044,2.044,0,0,0-1.714.967,4.47,4.47,0,0,0-.688,2.637V22h-1.6V12h1.6v2.061h.039a3.492,3.492,0,0,1,1.045-1.646,2.383,2.383,0,0,1,1.572-.591,2.615,2.615,0,0,1,.957.137Zm9.775,3.779h-7.061a3.74,3.74,0,0,0,.9,2.578,3.1,3.1,0,0,0,2.363.908,4.913,4.913,0,0,0,3.105-1.113v1.5a5.8,5.8,0,0,1-3.486.957,4.227,4.227,0,0,1-3.33-1.362,5.576,5.576,0,0,1-1.211-3.833,5.468,5.468,0,0,1,1.323-3.8,4.243,4.243,0,0,1,3.286-1.47,3.76,3.76,0,0,1,3.037,1.27,5.293,5.293,0,0,1,1.074,3.525Zm-1.641-1.357a3.259,3.259,0,0,0-.669-2.158,2.279,2.279,0,0,0-1.831-.771,2.587,2.587,0,0,0-1.924.811,3.678,3.678,0,0,0-.977,2.119Zm8.242,6.191a4.638,4.638,0,0,1-3.54-1.4,5.191,5.191,0,0,1-1.323-3.716,5.407,5.407,0,0,1,1.377-3.936,4.95,4.95,0,0,1,3.721-1.416,4.485,4.485,0,0,1,3.491,1.377,5.46,5.46,0,0,1,1.255,3.818,5.372,5.372,0,0,1-1.353,3.833A4.739,4.739,0,0,1,259.229,22.234Zm.117-9.121a3.046,3.046,0,0,0-2.441,1.05,4.312,4.312,0,0,0-.9,2.9,4.078,4.078,0,0,0,.908,2.8,3.087,3.087,0,0,0,2.432,1.025,2.928,2.928,0,0,0,2.388-1.006,4.365,4.365,0,0,0,.835-2.861,4.44,4.44,0,0,0-.835-2.891A2.915,2.915,0,0,0,259.347,13.113ZM280.782,22h-1.6V20.3h-.039a3.7,3.7,0,0,1-3.437,1.934,3.735,3.735,0,0,1-3.013-1.343,5.509,5.509,0,0,1-1.128-3.657,5.993,5.993,0,0,1,1.25-3.975,4.123,4.123,0,0,1,3.33-1.494,3.206,3.206,0,0,1,3,1.621h.039V7.2h1.6Zm-1.6-4.521V16a2.861,2.861,0,0,0-.8-2.051,2.686,2.686,0,0,0-2.031-.84,2.766,2.766,0,0,0-2.3,1.074,4.707,4.707,0,0,0-.84,2.969,4.234,4.234,0,0,0,.806,2.729,2.633,2.633,0,0,0,2.163,1,2.735,2.735,0,0,0,2.173-.967A3.6,3.6,0,0,0,279.181,17.479Zm12.881-.078H285a3.74,3.74,0,0,0,.9,2.578,3.1,3.1,0,0,0,2.363.908,4.913,4.913,0,0,0,3.105-1.113v1.5a5.8,5.8,0,0,1-3.486.957,4.227,4.227,0,0,1-3.33-1.362,5.576,5.576,0,0,1-1.211-3.833,5.468,5.468,0,0,1,1.323-3.8,4.243,4.243,0,0,1,3.286-1.47,3.76,3.76,0,0,1,3.037,1.27,5.293,5.293,0,0,1,1.074,3.525Zm-1.641-1.357a3.259,3.259,0,0,0-.669-2.158,2.279,2.279,0,0,0-1.831-.771,2.587,2.587,0,0,0-1.924.811,3.678,3.678,0,0,0-.977,2.119ZM307.12,22h-1.6V20.438h-.039a3.353,3.353,0,0,1-3.076,1.8,3.288,3.288,0,0,1-2.339-.791,2.741,2.741,0,0,1-.845-2.1q0-2.8,3.3-3.262l3-.42q0-2.549-2.061-2.549a4.923,4.923,0,0,0-3.262,1.23V12.7a6.2,6.2,0,0,1,3.4-.937q3.525,0,3.525,3.73Zm-1.6-5.059-2.412.332a3.916,3.916,0,0,0-1.68.552,1.591,1.591,0,0,0-.566,1.4,1.526,1.526,0,0,0,.522,1.2,2.019,2.019,0,0,0,1.392.464,2.571,2.571,0,0,0,1.968-.835,2.983,2.983,0,0,0,.776-2.114ZM318.673,21.2q0,5.508-5.273,5.508a7.08,7.08,0,0,1-3.242-.7V24.4a6.659,6.659,0,0,0,3.223.938q3.691,0,3.691-3.926V20.32h-.039a4.046,4.046,0,0,1-6.44.581,5.329,5.329,0,0,1-1.138-3.579,6.226,6.226,0,0,1,1.226-4.053,4.094,4.094,0,0,1,3.354-1.5,3.26,3.26,0,0,1,3,1.621h.039V12h1.6Zm-1.6-3.721V16a2.861,2.861,0,0,0-.806-2.041,2.652,2.652,0,0,0-2.007-.85,2.781,2.781,0,0,0-2.324,1.079,4.816,4.816,0,0,0-.84,3.022,4.135,4.135,0,0,0,.806,2.671,2.6,2.6,0,0,0,2.134,1,2.788,2.788,0,0,0,2.192-.957A3.567,3.567,0,0,0,317.071,17.479ZM330,22h-1.6V20.418h-.039a3.289,3.289,0,0,1-3.086,1.816q-3.574,0-3.574-4.258V12h1.592v5.723q0,3.164,2.422,3.164a2.45,2.45,0,0,0,1.929-.864,3.307,3.307,0,0,0,.757-2.261V12H330Zm10.391,0h-1.6V20.438h-.039a3.353,3.353,0,0,1-3.076,1.8,3.288,3.288,0,0,1-2.339-.791,2.741,2.741,0,0,1-.845-2.1q0-2.8,3.3-3.262l3-.42q0-2.549-2.061-2.549a4.923,4.923,0,0,0-3.262,1.23V12.7a6.2,6.2,0,0,1,3.4-.937q3.525,0,3.525,3.73Zm-1.6-5.059-2.412.332a3.916,3.916,0,0,0-1.68.552,1.591,1.591,0,0,0-.566,1.4,1.526,1.526,0,0,0,.522,1.2,2.019,2.019,0,0,0,1.392.464,2.571,2.571,0,0,0,1.968-.835,2.983,2.983,0,0,0,.776-2.114Zm11.738,3.613h-.039V26.6h-1.6V12h1.6v1.758h.039a3.787,3.787,0,0,1,3.457-1.992A3.662,3.662,0,0,1,357,13.108a5.562,5.562,0,0,1,1.084,3.6,6.2,6.2,0,0,1-1.221,4.019,4.064,4.064,0,0,1-3.34,1.509A3.346,3.346,0,0,1,350.528,20.555Zm-.039-4.033v1.4a2.973,2.973,0,0,0,.806,2.1,2.874,2.874,0,0,0,4.326-.249,5.107,5.107,0,0,0,.825-3.1,4.032,4.032,0,0,0-.771-2.617,2.553,2.553,0,0,0-2.09-.947,2.838,2.838,0,0,0-2.246.972A3.568,3.568,0,0,0,350.489,16.521ZM367.8,22h-1.6V20.438h-.039a3.353,3.353,0,0,1-3.076,1.8,3.288,3.288,0,0,1-2.339-.791,2.741,2.741,0,0,1-.845-2.1q0-2.8,3.3-3.262l3-.42q0-2.549-2.061-2.549a4.923,4.923,0,0,0-3.262,1.23V12.7a6.2,6.2,0,0,1,3.4-.937q3.525,0,3.525,3.73Zm-1.6-5.059-2.412.332a3.916,3.916,0,0,0-1.68.552,1.591,1.591,0,0,0-.566,1.4,1.526,1.526,0,0,0,.522,1.2,2.019,2.019,0,0,0,1.392.464,2.571,2.571,0,0,0,1.968-.835,2.983,2.983,0,0,0,.776-2.114Zm9.834-3.32a1.958,1.958,0,0,0-1.211-.322,2.044,2.044,0,0,0-1.714.967,4.47,4.47,0,0,0-.688,2.637V22h-1.6V12h1.6v2.061h.039a3.492,3.492,0,0,1,1.045-1.646,2.383,2.383,0,0,1,1.572-.591,2.615,2.615,0,0,1,.957.137Zm8.9,8.379h-1.6V20.438h-.039a3.353,3.353,0,0,1-3.076,1.8,3.288,3.288,0,0,1-2.339-.791,2.741,2.741,0,0,1-.845-2.1q0-2.8,3.3-3.262l3-.42q0-2.549-2.061-2.549a4.923,4.923,0,0,0-3.262,1.23V12.7a6.2,6.2,0,0,1,3.4-.937q3.525,0,3.525,3.73Zm-1.6-5.059-2.412.332a3.916,3.916,0,0,0-1.68.552,1.591,1.591,0,0,0-.566,1.4,1.526,1.526,0,0,0,.522,1.2,2.019,2.019,0,0,0,1.392.464,2.571,2.571,0,0,0,1.968-.835,2.983,2.983,0,0,0,.776-2.114Zm-258.184,31.6a5.2,5.2,0,0,1-2.734.693,4.527,4.527,0,0,1-3.452-1.392,5.043,5.043,0,0,1-1.313-3.608,5.544,5.544,0,0,1,1.416-3.97,4.954,4.954,0,0,1,3.779-1.5,5.261,5.261,0,0,1,2.324.488v1.641a4.072,4.072,0,0,0-2.383-.781,3.22,3.22,0,0,0-2.515,1.1,4.169,4.169,0,0,0-.981,2.886,3.969,3.969,0,0,0,.923,2.773,3.181,3.181,0,0,0,2.476,1.016,4.014,4.014,0,0,0,2.461-.869Zm6.6.693a4.638,4.638,0,0,1-3.54-1.4,5.191,5.191,0,0,1-1.323-3.716,5.407,5.407,0,0,1,1.377-3.936,4.95,4.95,0,0,1,3.721-1.416,4.485,4.485,0,0,1,3.491,1.377,5.46,5.46,0,0,1,1.255,3.818,5.372,5.372,0,0,1-1.353,3.833A4.739,4.739,0,0,1,131.749,49.234Zm.117-9.121a3.046,3.046,0,0,0-2.441,1.05,4.312,4.312,0,0,0-.9,2.9,4.078,4.078,0,0,0,.908,2.8,3.087,3.087,0,0,0,2.432,1.025,2.928,2.928,0,0,0,2.388-1.006,4.365,4.365,0,0,0,.835-2.861,4.44,4.44,0,0,0-.835-2.891A2.915,2.915,0,0,0,131.866,40.113ZM147.589,49h-1.6V43.3q0-3.184-2.324-3.184a2.521,2.521,0,0,0-1.987.9,3.348,3.348,0,0,0-.786,2.28V49h-1.6V39h1.6v1.66h.039a3.609,3.609,0,0,1,3.281-1.895,3.059,3.059,0,0,1,2.51,1.06,4.72,4.72,0,0,1,.869,3.062ZM150,48.639V46.92a4.74,4.74,0,0,0,2.881.967q2.109,0,2.109-1.406a1.22,1.22,0,0,0-.181-.679,1.8,1.8,0,0,0-.488-.493,3.759,3.759,0,0,0-.723-.386q-.415-.171-.894-.356a11.509,11.509,0,0,1-1.167-.532,3.526,3.526,0,0,1-.84-.605,2.253,2.253,0,0,1-.508-.767,2.712,2.712,0,0,1-.171-1.006,2.389,2.389,0,0,1,.322-1.245,2.858,2.858,0,0,1,.859-.908,4.007,4.007,0,0,1,1.226-.552,5.436,5.436,0,0,1,1.421-.186,5.737,5.737,0,0,1,2.324.449v1.621a4.53,4.53,0,0,0-2.539-.723,2.968,2.968,0,0,0-.811.1,1.984,1.984,0,0,0-.62.288,1.331,1.331,0,0,0-.4.444,1.17,1.17,0,0,0-.142.571,1.37,1.37,0,0,0,.142.654,1.44,1.44,0,0,0,.415.469,3.172,3.172,0,0,0,.664.371q.391.166.889.361a12.369,12.369,0,0,1,1.191.522,4.086,4.086,0,0,1,.9.605,2.366,2.366,0,0,1,.571.776,2.5,2.5,0,0,1,.2,1.045,2.464,2.464,0,0,1-.327,1.289,2.8,2.8,0,0,1-.874.908,4,4,0,0,1-1.26.537,6.22,6.22,0,0,1-1.494.176A5.673,5.673,0,0,1,150,48.639ZM167.179,49h-1.6V47.418h-.039a3.289,3.289,0,0,1-3.086,1.816q-3.574,0-3.574-4.258V39h1.592v5.723q0,3.164,2.422,3.164a2.45,2.45,0,0,0,1.929-.864,3.307,3.307,0,0,0,.757-2.261V39h1.6Zm17.432,0h-1.6V43.258a4.332,4.332,0,0,0-.513-2.4,1.944,1.944,0,0,0-1.724-.742,2.134,2.134,0,0,0-1.743.938,3.586,3.586,0,0,0-.718,2.246V49h-1.6V43.063q0-2.949-2.275-2.949A2.108,2.108,0,0,0,172.7,41a3.653,3.653,0,0,0-.684,2.3V49h-1.6V39h1.6v1.582h.039a3.4,3.4,0,0,1,3.105-1.816,2.888,2.888,0,0,1,2.832,2.07,3.569,3.569,0,0,1,3.32-2.07q3.3,0,3.3,4.072Zm7.207.234a4.638,4.638,0,0,1-3.54-1.4,5.191,5.191,0,0,1-1.323-3.716,5.407,5.407,0,0,1,1.377-3.936,4.95,4.95,0,0,1,3.721-1.416,4.485,4.485,0,0,1,3.491,1.377,5.46,5.46,0,0,1,1.255,3.818,5.372,5.372,0,0,1-1.353,3.833A4.739,4.739,0,0,1,191.817,49.234Zm.117-9.121a3.046,3.046,0,0,0-2.441,1.05,4.312,4.312,0,0,0-.9,2.9,4.078,4.078,0,0,0,.908,2.8,3.087,3.087,0,0,0,2.432,1.025,2.928,2.928,0,0,0,2.388-1.006,4.365,4.365,0,0,0,.835-2.861,4.44,4.44,0,0,0-.835-2.891A2.915,2.915,0,0,0,191.935,40.113ZM213.136,49h-1.6V43.238q0-3.125-2.324-3.125a2.534,2.534,0,0,0-1.973.9,3.366,3.366,0,0,0-.8,2.319V49h-1.6V34.2h1.6V40.66h.039a3.637,3.637,0,0,1,3.281-1.895q3.379,0,3.379,4.072Zm11.1,0h-1.6V47.418H222.6a3.289,3.289,0,0,1-3.086,1.816q-3.574,0-3.574-4.258V39h1.592v5.723q0,3.164,2.422,3.164a2.45,2.45,0,0,0,1.929-.864,3.307,3.307,0,0,0,.757-2.261V39h1.6Zm17.432,0h-1.6V43.258a4.332,4.332,0,0,0-.513-2.4,1.944,1.944,0,0,0-1.724-.742,2.134,2.134,0,0,0-1.743.938,3.586,3.586,0,0,0-.718,2.246V49h-1.6V43.063q0-2.949-2.275-2.949a2.108,2.108,0,0,0-1.738.884,3.653,3.653,0,0,0-.684,2.3V49h-1.6V39h1.6v1.582h.039a3.4,3.4,0,0,1,3.105-1.816,2.888,2.888,0,0,1,2.832,2.07,3.569,3.569,0,0,1,3.32-2.07q3.3,0,3.3,4.072Zm10.186,0h-1.6V47.438h-.039a3.353,3.353,0,0,1-3.076,1.8,3.288,3.288,0,0,1-2.339-.791,2.741,2.741,0,0,1-.845-2.1q0-2.8,3.3-3.262l3-.42q0-2.549-2.061-2.549a4.923,4.923,0,0,0-3.262,1.23V39.7a6.2,6.2,0,0,1,3.4-.937q3.525,0,3.525,3.73Zm-1.6-5.059-2.412.332a3.916,3.916,0,0,0-1.68.552,1.591,1.591,0,0,0-.566,1.4,1.526,1.526,0,0,0,.522,1.2,2.019,2.019,0,0,0,1.392.464,2.571,2.571,0,0,0,1.968-.835,2.983,2.983,0,0,0,.776-2.114ZM263.175,49h-1.6V43.3q0-3.184-2.324-3.184a2.521,2.521,0,0,0-1.987.9,3.348,3.348,0,0,0-.786,2.28V49h-1.6V39h1.6v1.66h.039a3.609,3.609,0,0,1,3.281-1.895,3.059,3.059,0,0,1,2.51,1.06,4.72,4.72,0,0,1,.869,3.062Zm7.2.234a4.638,4.638,0,0,1-3.54-1.4,5.191,5.191,0,0,1-1.323-3.716,5.407,5.407,0,0,1,1.377-3.936,4.95,4.95,0,0,1,3.721-1.416,4.485,4.485,0,0,1,3.491,1.377,5.46,5.46,0,0,1,1.255,3.818A5.372,5.372,0,0,1,274,47.794,4.739,4.739,0,0,1,270.372,49.234Zm.117-9.121a3.046,3.046,0,0,0-2.441,1.05,4.312,4.312,0,0,0-.9,2.9,4.078,4.078,0,0,0,.908,2.8,3.087,3.087,0,0,0,2.432,1.025,2.928,2.928,0,0,0,2.388-1.006,4.365,4.365,0,0,0,.835-2.861,4.44,4.44,0,0,0-.835-2.891A2.915,2.915,0,0,0,270.489,40.113Z" transform="translate(13.114 12.805)" fill="#12263f"/>
    </g>
    <rect id="Rectángulo_401536" data-name="Rectángulo 401536" width="223" height="104" transform="translate(180.333 648)" fill="#fde4cf"/>
    <text id="Plan_de_muestreo" data-name="Plan de muestreo" transform="translate(236.333 704)" fill="#12263f" font-size="16" font-family="SegoeUI, Segoe UI"><tspan x="0" y="0">Plan de muestreo</tspan></text>
    <rect id="Rectángulo_401537" data-name="Rectángulo 401537" width="210" height="104" transform="translate(449.333 648)" fill="#fde4cf"/>
    <text id="Equipos_y_materiales_de_laboratorio" data-name="Equipos y materiales 
de laboratorio" transform="translate(553.333 694)" fill="#12263f" font-size="16" font-family="SegoeUI, Segoe UI"><tspan x="-74.613" y="0">Equipos y materiales </tspan><tspan x="-50.141" y="24">de laboratorio</tspan></text>
    <rect id="Rectángulo_401538" data-name="Rectángulo 401538" width="210" height="104" transform="translate(679.333 648)" fill="#fde4cf"/>
    <text id="Buenas_práctcias_de_laboratorio" data-name="Buenas práctcias de 
laboratorio" transform="translate(783.333 694)" fill="#12263f" font-size="16" font-family="SegoeUI, Segoe UI"><tspan x="-71.816" y="0">Buenas práctcias de </tspan><tspan x="-39.055" y="24">laboratorio</tspan></text>
    <rect id="Rectángulo_401539" data-name="Rectángulo 401539" width="265" height="104" transform="translate(913.333 648)" fill="#fde4cf"/>
    <text id="Características_físicas_químicas_y_microbiológicas_del_agua" data-name="Características físicas, químicas 
y microbiológicas 
del agua" transform="translate(1045.333 682)" fill="#12263f" font-size="16" font-family="SegoeUI, Segoe UI"><tspan x="-110.793" y="0">Características físicas, químicas </tspan><tspan x="-64.008" y="24">y microbiológicas </tspan><tspan x="-30.402" y="48">del agua</tspan></text>
    <rect id="Rectángulo_401540" data-name="Rectángulo 401540" width="224" height="104" transform="translate(1196.333 648)" fill="#fde4cf"/>
    <text id="Ensayos_in_situ" data-name="Ensayos in situ" transform="translate(1303.333 697)" fill="#12263f" font-size="16" font-family="SegoeUI, Segoe UI"><tspan x="-51.238" y="0">Ensayos</tspan><tspan y="0" xml:space="preserve" font-family="SegoeUI-Italic, Segoe UI" font-style="italic"> in situ</tspan></text>
    <rect id="Rectángulo_401541" data-name="Rectángulo 401541" width="230" height="84" transform="translate(236.333 812)" fill="#d2effe"/>
    <text id="Alistamiento_de_la_toma_de_muestras" data-name="Alistamiento de la toma 
de muestras" transform="translate(265.333 847)" fill="#12263f" font-size="16" font-family="SegoeUI, Segoe UI"><tspan x="0" y="0">Alistamiento de la toma </tspan><tspan x="0" y="24">de muestras</tspan></text>
    <rect id="Rectángulo_401542" data-name="Rectángulo 401542" width="230" height="58" transform="translate(236.333 905)" fill="#d2effe"/>
    <text id="Personal" transform="translate(265.333 940)" fill="#12263f" font-size="16" font-family="SegoeUI, Segoe UI"><tspan x="0" y="0">Personal</tspan></text>
    <rect id="Rectángulo_401543" data-name="Rectángulo 401543" width="230" height="58" transform="translate(236.333 974)" fill="#d2effe"/>
    <text id="Puntos_de_muestreo" data-name="Puntos de muestreo" transform="translate(265.333 1009)" fill="#12263f" font-size="16" font-family="SegoeUI, Segoe UI"><tspan x="0" y="0">Puntos de muestreo</tspan></text>
    <rect id="Rectángulo_401544" data-name="Rectángulo 401544" width="230" height="106" transform="translate(236.333 1043)" fill="#d2effe"/>
    <text id="Selección_de_lugares_para_recolección_de_muestras" data-name="Selección de lugares 
para recolección de 
muestras" transform="translate(265.333 1078)" fill="#12263f" font-size="16" font-family="SegoeUI, Segoe UI"><tspan x="0" y="0">Selección de lugares </tspan><tspan x="0" y="24">para recolección de </tspan><tspan x="0" y="48">muestras</tspan></text>
    <rect id="Rectángulo_401545" data-name="Rectángulo 401545" width="151" height="49" transform="translate(521.333 812)" fill="#d2effe"/>
    <text id="Equipos" transform="translate(539.333 842)" fill="#12263f" font-size="16" font-family="SegoeUI, Segoe UI"><tspan x="0" y="0">Equipos</tspan></text>
    <rect id="Rectángulo_401546" data-name="Rectángulo 401546" width="151" height="58" transform="translate(521.333 870)" fill="#d2effe"/>
    <text id="Materiales_de_laboratorio" data-name="Materiales de 
laboratorio" transform="translate(533.333 893)" fill="#12263f" font-size="16" font-family="SegoeUI, Segoe UI"><tspan x="0" y="0">Materiales de </tspan><tspan x="0" y="24">laboratorio</tspan></text>
    <rect id="Rectángulo_401547" data-name="Rectángulo 401547" width="230" height="84" transform="translate(733.333 812)" fill="#d2effe"/>
    <text id="Seguridad_y_salud_en_el_trabajo_de_muestreo" data-name="Seguridad y salud 
en el trabajo de muestreo" transform="translate(758.333 847)" fill="#12263f" font-size="16" font-family="SegoeUI, Segoe UI"><tspan x="0" y="0">Seguridad y salud </tspan><tspan x="0" y="24">en el trabajo de muestreo</tspan></text>
    <rect id="Rectángulo_401548" data-name="Rectángulo 401548" width="230" height="84" transform="translate(733.333 905)" fill="#d2effe"/>
    <text id="Peligros_en_salud_y_seguridad_en_el_trabajo" data-name="Peligros en salud y 
seguridad en el trabajo" transform="translate(758.333 940)" fill="#12263f" font-size="16" font-family="SegoeUI, Segoe UI"><tspan x="0" y="0">Peligros en salud y </tspan><tspan x="0" y="24">seguridad en el trabajo</tspan></text>
    <path id="Trazado_873996" data-name="Trazado 873996" d="M-12406.333-8907v-41.57h1030V-8907" transform="translate(12691.333 9555)" fill="none" stroke="#707070" stroke-width="1"/>
    <path id="Trazado_873997" data-name="Trazado 873997" d="M-12127.547-8948.57V-8907" transform="translate(12691.333 9555)" fill="none" stroke="#707070" stroke-width="1"/>
    <path id="Trazado_873998" data-name="Trazado 873998" d="M-12127.547-8948.57v75" transform="translate(12927.547 9521.57)" fill="none" stroke="#707070" stroke-width="1"/>
    <path id="Trazado_873999" data-name="Trazado 873999" d="M-12127.547-8948.57V-8907" transform="translate(13172.88 9555)" fill="none" stroke="#707070" stroke-width="1"/>
    <path id="Trazado_874000" data-name="Trazado 874000" d="M-12477.3-8803v344.855h20.992" transform="translate(12691.333 9555)" fill="none" stroke="#707070" stroke-width="1"/>
    <path id="Trazado_874001" data-name="Trazado 874001" d="M-12477.3-8556.469h22.67" transform="translate(12691.333 9555)" fill="none" stroke="#707070" stroke-width="1"/>
    <path id="Trazado_874002" data-name="Trazado 874002" d="M-12477.3-8556.469h22.67" transform="translate(12691.333 9490.969)" fill="none" stroke="#707070" stroke-width="1"/>
    <path id="Trazado_874003" data-name="Trazado 874003" d="M-12477.3-8556.469h22.67" transform="translate(12691.333 9409.969)" fill="none" stroke="#707070" stroke-width="1"/>
    <path id="Trazado_874004" data-name="Trazado 874004" d="M-12477.3-8556.469h21.831" transform="translate(12976.803 9395.969)" fill="none" stroke="#707070" stroke-width="1"/>
    <path id="Trazado_874005" data-name="Trazado 874005" d="M-12477.3-8803v149.848h20.992" transform="translate(12976.803 9555)" fill="none" stroke="#707070" stroke-width="1"/>
    <path id="Trazado_874006" data-name="Trazado 874006" d="M-12477.3-8556.469h21.831" transform="translate(13188.803 9395.969)" fill="none" stroke="#707070" stroke-width="1"/>
    <path id="Trazado_874007" data-name="Trazado 874007" d="M-12477.3-8803v192h20.992" transform="translate(13188.803 9555)" fill="none" stroke="#707070" stroke-width="1"/>
  </g>
</svg>
