<svg xmlns="http://www.w3.org/2000/svg" xmlns:xlink="http://www.w3.org/1999/xlink" width="102" height="102" viewBox="0 0 102 102">
  <defs>
    <filter id="Rect치ngulo_401378" x="0" y="0" width="102" height="102" filterUnits="userSpaceOnUse">
      <feOffset input="SourceAlpha"/>
      <feGaussianBlur stdDeviation="2" result="blur"/>
      <feFlood flood-opacity="0.251"/>
      <feComposite operator="in" in2="blur"/>
      <feComposite in="SourceGraphic"/>
    </filter>
  </defs>
  <g id="Grupo_1099847" data-name="Grupo 1099847" transform="translate(835 7209)">
    <g id="Grupo_1099706" data-name="Grupo 1099706" transform="translate(-1856.781 -9169)">
      <g id="Grupo_1099558" data-name="Grupo 1099558" transform="translate(1027.781 1966)">
        <g transform="matrix(1, 0, 0, 1, -6, -6)" filter="url(#Rect치ngulo_401378)">
          <g id="Rect치ngulo_401378-2" data-name="Rect치ngulo 401378" transform="translate(6 6)" fill="#a1c0f9" stroke="#fff" stroke-width="3">
            <path d="M29,0H61A29,29,0,0,1,90,29V61A29,29,0,0,1,61,90H0a0,0,0,0,1,0,0V29A29,29,0,0,1,29,0Z" stroke="none"/>
            <path d="M29,1.5H61A27.5,27.5,0,0,1,88.5,29V61A27.5,27.5,0,0,1,61,88.5H1.5a0,0,0,0,1,0,0V29A27.5,27.5,0,0,1,29,1.5Z" fill="none"/>
          </g>
        </g>
      </g>
    </g>
    <g id="Fill_Outline" data-name="Fill Outline" transform="translate(-812.99 -7187)">
      <circle id="Elipse_11639" data-name="Elipse 11639" cx="24.574" cy="24.574" r="24.574" transform="translate(3.909 2.91)" fill="#bbf58b"/>
      <circle id="Elipse_11640" data-name="Elipse 11640" cx="21.844" cy="21.844" r="21.844" transform="translate(6.64 5.641)" fill="#80e1b8"/>
      <path id="Trazado_873937" data-name="Trazado 873937" d="M44.484,23.02a9.193,9.193,0,0,0-8.628-9.011,9.087,9.087,0,0,0-8.569,4.942,14.744,14.744,0,0,1-4.567,5A9.085,9.085,0,0,0,19,31.374a9.193,9.193,0,0,0,8.627,9.011A9.09,9.09,0,0,0,36.2,35.442a14.735,14.735,0,0,1,4.565-5A9.083,9.083,0,0,0,44.484,23.02Z" transform="translate(-1.438 -1.078)" fill="#3aba80"/>
      <path id="Trazado_873938" data-name="Trazado 873938" d="M23.33,9a5.616,5.616,0,0,0-4.943,2.885,4.981,4.981,0,0,0-.721,2.078,2.477,2.477,0,0,1-1.253,1.95,4.551,4.551,0,1,0,6.425,5.54,2.771,2.771,0,0,1,1.82-1.757A5.461,5.461,0,0,0,23.33,9Z" transform="translate(-0.989 -0.629)" fill="#ffc569"/>
      <path id="Trazado_873939" data-name="Trazado 873939" d="M33.668,25v3.641a10.922,10.922,0,1,1-9.449,16.383H20.174A14.562,14.562,0,1,0,33.668,25Z" transform="translate(-1.544 -2.066)" fill="#2070a1"/>
      <path id="Trazado_873940" data-name="Trazado 873940" d="M0,0H9.1V16.383H0Z" transform="translate(36.195 14.241) rotate(45)" fill="#92e5eb"/>
      <path id="Trazado_873941" data-name="Trazado 873941" d="M0,0H5.461V3.641H0Z" transform="translate(25.9 27.111) rotate(45)" fill="#34b2e4"/>
      <path id="Trazado_873942" data-name="Trazado 873942" d="M0,0H3.641V3.641H0Z" transform="translate(23.97 30.329) rotate(45)" fill="#92e5eb"/>
      <path id="Trazado_873943" data-name="Trazado 873943" d="M0,0H5.461V5.461H0Z" transform="translate(41.343 11.666) rotate(45)" fill="#68cbf2"/>
      <path id="Trazado_873944" data-name="Trazado 873944" d="M15,43H29.562v3.641H15Z" transform="translate(-1.079 -3.684)" fill="#92e5eb"/>
      <path id="Trazado_873945" data-name="Trazado 873945" d="M29.641,57H39.652a3.641,3.641,0,0,1,3.641,3.641H26A3.641,3.641,0,0,1,29.641,57Z" transform="translate(-2.067 -4.942)" fill="#34b2e4"/>
      <path id="Trazado_873946" data-name="Trazado 873946" d="M38.331,25.144a7.281,7.281,0,0,1-9.739.506L26.745,27.5l6.436,6.436L44.767,22.345l-1.82-1.82Z" transform="translate(-2.134 -1.664)" fill="#68cbf2"/>
      <path id="Trazado_873947" data-name="Trazado 873947" d="M44.1,27.9a2.366,2.366,0,0,0,.049,3.377A14.538,14.538,0,0,1,45.1,50.986a14.545,14.545,0,0,0-1-23.086Z" transform="translate(-3.632 -2.327)" fill="#34b2e4"/>
      <path id="Trazado_873948" data-name="Trazado 873948" d="M47.325,16.245a3.641,3.641,0,0,1-5.149,0l-.377-.377-.91.91,3.862,3.862,3.861-3.862-.91-.91Z" transform="translate(-3.405 -1.246)" fill="#2070a1"/>
      <path id="Trazado_873949" data-name="Trazado 873949" d="M28.071,29.6l-.91.91,1.02,1.021a2.721,2.721,0,0,1,.24,3.568l.937.937,2.571-2.578Z" transform="translate(-2.172 -2.48)" fill="#2070a1"/>
      <path id="Trazado_873950" data-name="Trazado 873950" d="M25.95,33.132l-.91.91.377.377a1.82,1.82,0,0,1,0,2.574l-.377.378.91.91,2.574-2.575Z" transform="translate(-1.981 -2.797)" fill="#68cbf2"/>
      <path id="Trazado_873951" data-name="Trazado 873951" d="M16.82,43H15v3.641H29.562V44.82H18.641A1.82,1.82,0,0,1,16.82,43Z" transform="translate(-1.079 -3.684)" fill="#68cbf2"/>
      <path id="Trazado_873952" data-name="Trazado 873952" d="M30.551,58.833a1.814,1.814,0,0,1-1.808-1.7A3.632,3.632,0,0,0,26,60.653H43.293a3.6,3.6,0,0,0-.505-1.82Z" transform="translate(-2.067 -4.954)" fill="#2070a1"/>
      <circle id="Elipse_11641" data-name="Elipse 11641" cx="1.82" cy="1.82" r="1.82" transform="translate(20.292 12.012)" fill="#68cbf2"/>
      <path id="Trazado_873953" data-name="Trazado 873953" d="M12.244,30.714l.962-.16a3.19,3.19,0,0,1,2.943,5.226l-1.71,2a3.19,3.19,0,0,1-5.076-.307l-.182-.279A3.186,3.186,0,0,1,9.1,33.777l.934-1.556a3.19,3.19,0,0,1,2.214-1.507Z" transform="translate(-0.508 -2.561)" fill="#ffc569"/>
      <path id="Trazado_873954" data-name="Trazado 873954" d="M25.572,15.556a2.771,2.771,0,0,0-1.82,1.757,4.551,4.551,0,0,1-8.575-.007,4.545,4.545,0,1,0,7.664,4.558,2.771,2.771,0,0,1,1.82-1.757,5.436,5.436,0,0,0,3.738-6.54,5.467,5.467,0,0,1-2.828,1.99Z" transform="translate(-0.99 -1.039)" fill="#f06e7a"/>
      <path id="Trazado_873955" data-name="Trazado 873955" d="M15.349,35.285a3.19,3.19,0,0,1-5.076-.307l-.182-.279a3.186,3.186,0,0,1-.514-1.474L9.1,34.02a3.186,3.186,0,0,0,.081,3.41l.182.279a3.19,3.19,0,0,0,5.076.307l1.71-1.991a3.186,3.186,0,0,0,.722-2.511Z" transform="translate(-0.508 -2.805)" fill="#f06e7a"/>
      <g id="Grupo_1099846" data-name="Grupo 1099846" transform="translate(2.99 2)">
        <path id="Trazado_873956" data-name="Trazado 873956" d="M28.483,2a25.484,25.484,0,0,0-9.754,49.031.91.91,0,1,0,.7-1.682,23.664,23.664,0,1,1,30.025-10.9.91.91,0,1,0,1.613.846A25.484,25.484,0,0,0,28.483,2Z" transform="translate(-2.99 -2)" fill="#2f2f31"/>
        <path id="Trazado_873957" data-name="Trazado 873957" d="M41.243,25.084l3.023-3.023a.91.91,0,0,0,0-1.287l-.643-.643L46.2,17.556l.644.644a.911.911,0,0,0,1.291-1.287l-6.439-6.44A.91.91,0,1,0,40.4,11.761l.644.643-2.575,2.575-.643-.643a.937.937,0,0,0-1.287,0l-3.732,3.732A.91.91,0,1,0,34.1,19.354l3.084-3.085.643.643,1.931,1.934,2.575,2.574L36.343,27.41l-4.309,4.308-5.149-5.149,4.642-4.642a.91.91,0,1,0-1.287-1.287l-5.279,5.279a.91.91,0,0,0,0,1.287l.643.643-1.93,1.931a.91.91,0,0,0,0,1.287L21.736,33a.91.91,0,0,0,0,1.287l2.578,2.578a.91.91,0,0,0,1.287,0l1.93-1.931a.91.91,0,0,0,1.287,0L30.747,33l.643.643a.91.91,0,0,0,1.287,0l4.532-4.531A10,10,0,1,1,25.425,44.6h4.047a.91.91,0,1,0,0-1.82H15.82v-1.82H29.473a.91.91,0,1,0,0-1.82H14.91a.91.91,0,0,0-.91.91v3.641a.91.91,0,0,0,.91.91h4.121a15.408,15.408,0,0,0,7.645,7.7,4.551,4.551,0,0,0-2.665,4.13.91.91,0,0,0,.91.91H42.215a.91.91,0,0,0,.91-.91,4.542,4.542,0,0,0-3.2-4.321A15.487,15.487,0,0,0,45.9,46.937a.91.91,0,1,0-1.5-1.025A13.638,13.638,0,0,1,21.053,44.6H23.16A11.82,11.82,0,1,0,38.574,27.757l1.342-1.342a13.609,13.609,0,0,1,5.848,16.939.91.91,0,1,0,1.687.683,15.433,15.433,0,0,0-6.208-18.951ZM42.335,13.7l2.574,2.574-2.574,2.578-1.288-1.288-1.29-1.29ZM24.958,34.934,23.67,33.646l1.288-1.287,1.287,1.287ZM28.176,33,25.6,30.429l1.287-1.287,2.574,2.574Zm10.4,20.7a2.736,2.736,0,0,1,2.575,1.82H25.988a2.736,2.736,0,0,1,2.575-1.82Z" transform="translate(-3.979 -2.737)" fill="#2f2f31"/>
        <path id="Trazado_873958" data-name="Trazado 873958" d="M26.461,14.73a2.73,2.73,0,1,0-2.73,2.73A2.73,2.73,0,0,0,26.461,14.73Zm-3.641,0a.91.91,0,1,1,.91.91A.91.91,0,0,1,22.82,14.73Z" transform="translate(-4.608 -2.898)" fill="#2f2f31"/>
        <path id="Trazado_873959" data-name="Trazado 873959" d="M23.6,21.67a1.85,1.85,0,0,1,1.228-1.191A6.371,6.371,0,0,0,23.28,8.01a6.559,6.559,0,0,0-5.759,3.325,5.9,5.9,0,0,0-.846,2.453,1.577,1.577,0,0,1-.775,1.236,5.461,5.461,0,0,0,1.393,10.151,5.724,5.724,0,0,0,1.17.119A5.424,5.424,0,0,0,23.6,21.67ZM17.662,23.39a3.651,3.651,0,0,1-2.79-2.931,3.611,3.611,0,0,1,1.879-3.832,3.368,3.368,0,0,0,1.729-2.655,4.047,4.047,0,0,1,.6-1.7,4.765,4.765,0,0,1,3.97-2.45H23.2a4.551,4.551,0,0,1,1.109,8.909,3.674,3.674,0,0,0-2.42,2.324,3.648,3.648,0,0,1-4.229,2.335Z" transform="translate(-3.89 -2.54)" fill="#2f2f31"/>
        <circle id="Elipse_11642" data-name="Elipse 11642" cx="0.91" cy="0.91" r="0.91" transform="translate(13.662 16.383)" fill="#2f2f31"/>
        <path id="Trazado_873960" data-name="Trazado 873960" d="M10.076,36.873,9.894,36.6a.91.91,0,1,0-1.517,1l.187.279a4.068,4.068,0,0,0,3.164,1.82q.128.008.254.008a4.07,4.07,0,0,0,3.107-1.432l1.708-2a4.1,4.1,0,0,0-3.786-6.712l-.96.161A4.1,4.1,0,0,0,9.2,31.661L8.27,33.217a.911.911,0,0,0,1.563.937l.932-1.559a2.275,2.275,0,0,1,1.581-1.076l.961-.16a2.275,2.275,0,0,1,2.105,3.732l-1.709,2a2.275,2.275,0,0,1-3.627-.218Z" transform="translate(-3.452 -4.472)" fill="#2f2f31"/>
        <circle id="Elipse_11643" data-name="Elipse 11643" cx="0.91" cy="0.91" r="0.91" transform="translate(8.201 29.125)" fill="#2f2f31"/>
        <path id="Trazado_873961" data-name="Trazado 873961" d="M53.621,25.8a2.639,2.639,0,0,0-1.167-1.944.91.91,0,1,0-1.009,1.515.831.831,0,0,1,.127,1.274,2.654,2.654,0,0,0,0,3.748.91.91,0,1,0,1.287-1.287.832.832,0,0,1,0-1.174A2.639,2.639,0,0,0,53.621,25.8Z" transform="translate(-7.285 -3.95)" fill="#2f2f31"/>
        <path id="Trazado_873962" data-name="Trazado 873962" d="M37.607,38.05a1.786,1.786,0,0,0-1.837.091l-1.365.91a.91.91,0,1,0,1.01,1.514l1.315-.942V40.9a1.785,1.785,0,0,0,.944,1.576,1.638,1.638,0,0,0,1.787-.12.91.91,0,1,0,1.82,0,1.785,1.785,0,0,0-.944-1.576,1.638,1.638,0,0,0-1.787.12V39.624a1.785,1.785,0,0,0-.944-1.574Z" transform="translate(-5.776 -5.22)" fill="#2f2f31"/>
        <circle id="Elipse_11644" data-name="Elipse 11644" cx="0.91" cy="0.91" r="0.91" transform="translate(16.392 24.574)" fill="#2f2f31"/>
        <circle id="Elipse_11645" data-name="Elipse 11645" cx="0.91" cy="0.91" r="0.91" transform="translate(34.595 30.945)" fill="#2f2f31"/>
        <path id="Trazado_873963" data-name="Trazado 873963" d="M34.73,12.641a.91.91,0,0,0,1.82,0A3.641,3.641,0,0,0,32.91,9a.91.91,0,1,0,0,1.82A1.82,1.82,0,0,1,34.73,12.641Z" transform="translate(-5.596 -2.629)" fill="#2f2f31"/>
        <path id="Trazado_873964" data-name="Trazado 873964" d="M34.267,46.554l1.82,1.82a.91.91,0,1,0,1.287-1.287l-1.82-1.82a.91.91,0,1,0-1.287,1.287Z" transform="translate(-5.776 -5.863)" fill="#2f2f31"/>
      </g>
    </g>
  </g>
</svg>
