<svg xmlns="http://www.w3.org/2000/svg" xmlns:xlink="http://www.w3.org/1999/xlink" width="102" height="102" viewBox="0 0 102 102">
  <defs>
    <filter id="Rect치ngulo_401378" x="0" y="0" width="102" height="102" filterUnits="userSpaceOnUse">
      <feOffset input="SourceAlpha"/>
      <feGaussianBlur stdDeviation="2" result="blur"/>
      <feFlood flood-opacity="0.251"/>
      <feComposite operator="in" in2="blur"/>
      <feComposite in="SourceGraphic"/>
    </filter>
  </defs>
  <g id="Grupo_1099862" data-name="Grupo 1099862" transform="translate(203 7209)">
    <g id="Grupo_1099854" data-name="Grupo 1099854" transform="translate(317.102)">
      <g id="Grupo_1099707" data-name="Grupo 1099707" transform="translate(-1541.883 -9169)">
        <g id="Grupo_1099558" data-name="Grupo 1099558" transform="translate(1027.781 1966)">
          <g transform="matrix(1, 0, 0, 1, -6, -6)" filter="url(#Rect치ngulo_401378)">
            <g id="Rect치ngulo_401378-2" data-name="Rect치ngulo 401378" transform="translate(6 6)" fill="#a1c0f9" stroke="#fff" stroke-width="3">
              <path d="M29,0H61A29,29,0,0,1,90,29V61A29,29,0,0,1,61,90H0a0,0,0,0,1,0,0V29A29,29,0,0,1,29,0Z" stroke="none"/>
              <path d="M29,1.5H61A27.5,27.5,0,0,1,88.5,29V61A27.5,27.5,0,0,1,61,88.5H1.5a0,0,0,0,1,0,0V29A27.5,27.5,0,0,1,29,1.5Z" fill="none"/>
            </g>
          </g>
        </g>
      </g>
    </g>
    <g id="desastre" transform="translate(-177 -7183.4)">
      <g id="Grupo_1099860" data-name="Grupo 1099860" transform="translate(1.775 8.836)">
        <g id="Grupo_1099855" data-name="Grupo 1099855" transform="translate(0 21.698)">
          <path id="Trazado_873976" data-name="Trazado 873976" d="M48.491,56.821H2V40.55l3.874,3.1,7.748-3.1,2.325,3.1L14.4,45.974l4.649,3.1-1.55,1.55,7.748,3.1-3.1-5.424,1.55-2.325-3.874-2.325L22.146,39l13.947,4.649-.775,5.424,2.325,4.649,1.55-3.1h2.325l-2.325-3.874V44.424l9.3-4.649Z" transform="translate(-2 -39)" fill="#dfb28b"/>
        </g>
        <g id="Grupo_1099856" data-name="Grupo 1099856" transform="translate(3.874)">
          <path id="Trazado_873977" data-name="Trazado 873977" d="M13.036,29.7h-.008c-.24-.062-.38-.093-.38-.093S5.675,27.286,7.225,18.763s9.3-7.748,11.623-7.748,6.2.775,6.2,2.325-6.974.775-6.2,3.1S28.92,15.664,29.7,18.763s-8.523,1.55-8.523,3.874,5.424.775,4.649,3.1-6.974,0-7.748,1.55,2.325,2.325,1.55,3.1C18.964,31.044,14.4,30.029,13.036,29.7Z" transform="translate(-7 -10.996)" fill="#b4dd7f"/>
        </g>
        <g id="Grupo_1099857" data-name="Grupo 1099857" transform="translate(27.894 16.275)">
          <path id="Trazado_873978" data-name="Trazado 873978" d="M52.714,33.689a3.312,3.312,0,0,1-1.542,2.96c-4.649,2.325-10.848,0-10.848,0A5.811,5.811,0,0,1,38,32s.775,3.1,8.523,3.1c4.424,0,5.819-.759,6.191-1.41Z" transform="translate(-38 -32)" fill="#ccd1d9"/>
        </g>
        <g id="Grupo_1099858" data-name="Grupo 1099858" transform="translate(27.894 14.663)">
          <path id="Trazado_873979" data-name="Trazado 873979" d="M52.722,32.307a.878.878,0,0,1-.008.914c-.372.651-1.767,1.41-6.191,1.41-7.748,0-8.523-3.1-8.523-3.1v-1.55l.039-.062a9.174,9.174,0,0,0,2.286.837,28.549,28.549,0,0,0,11.77.294Z" transform="translate(-38 -29.92)" fill="#ccd1d9"/>
        </g>
        <g id="Grupo_1099859" data-name="Grupo 1099859" transform="translate(26.998 10.851)">
          <path id="Trazado_873980" data-name="Trazado 873980" d="M51.834,29.944a28.549,28.549,0,0,1-11.77-.294,9.174,9.174,0,0,1-2.286-.837c-2.472-1.433.736-3.037.736-3.037l2.239-.372,2.41-.4a34.065,34.065,0,0,1,6.974.775l3.874,1.55c.938,1.247-.147,2.123-2.177,2.619Z" transform="translate(-36.843 -25)" fill="#aab2bd"/>
        </g>
      </g>
      <g id="Grupo_1099861" data-name="Grupo 1099861" transform="translate(1 1.4)">
        <path id="Trazado_873981" data-name="Trazado 873981" d="M38.192,37.415v3.018l1.731,2.885H38.488L37.418,45.46l-1.523-3.047.832-5.824-15.2-5.067-2.946,5.892,3.793,2.276-1.364,2.047,2.235,3.911-4.595-1.838,1.388-1.387-4.791-3.194,1.424-2.136-3.009-4.013-2.157.863.766-3.524a23.426,23.426,0,0,0,4.821.721,2.516,2.516,0,0,0,1.727-.427,1.118,1.118,0,0,0,.351-.866c-.031-.6-.521-1-.995-1.386-.786-.641-.868-.834-.775-1.028a6.871,6.871,0,0,1,2.634-.108c2.135.129,4.556.277,5.171-1.564a1.678,1.678,0,0,0-.1-1.457c-.48-.786-1.555-.951-2.6-1.11-1.294-.2-1.911-.367-1.912-.779.2-.408,2.243-.668,3.343-.807,2.118-.268,4.119-.521,4.907-1.674a1.9,1.9,0,0,0,.251-1.579c-.568-2.272-3.848-2.135-6.743-2.018-1.379.057-3.947.163-4.121-.364a.274.274,0,0,1-.02-.1c.14-.377,2-.69,2.789-.824,1.784-.3,3.469-.585,3.469-1.926,0-2.53-5.164-3.1-6.974-3.1-.153,0-.332,0-.53-.008-2.814-.057-10.292-.2-11.855,8.392-1.468,8.077,4.313,11.037,5.662,11.611l-1,4.623L5.781,36.231,1,32.407V51.066H49.04V31.991ZM6.636,18.68c1.327-7.3,7.389-7.181,10.3-7.119.21,0,.4.008.56.008,2.627,0,5.1.853,5.4,1.44a9.951,9.951,0,0,1-2.149.508c-1.675.282-3.257.549-3.858,1.549a1.626,1.626,0,0,0-.125,1.4c.545,1.633,2.912,1.535,5.656,1.422,2.074-.084,4.914-.2,5.176.845.053.212,0,.287-.026.328-.394.577-2.376.828-3.822,1.011-2.416.306-4.7.594-4.7,2.347,0,1.812,1.941,2.111,3.225,2.308a4.887,4.887,0,0,1,1.5.364.461.461,0,0,1-.036.182c-.238.712-2.184.594-3.606.507-1.891-.115-3.522-.215-4.1.941-.687,1.374.443,2.351,1.11,2.895A28.9,28.9,0,0,1,12.6,28.9l.5-2.305,4.778-2.731-.769-1.345-3.567,2.038,1.609-7.4-1.514-.329-1.178,5.417-2.109-2.637-1.21.968,2.9,3.619-.3,1.4-.046.027.029.052-.61,2.806c-1.419-.65-5.673-3.184-4.471-9.8ZM47.491,49.517H2.55V35.632l2.968,2.374,7.616-3.047,1.64,2.186L13.1,39.658l4.507,3-1.712,1.712,10.9,4.361L22.832,41.8l1.735-2.6-3.956-2.373,1.7-3.406,12.7,4.231-.718,5.023,3.124,6.252,2.029-4.057H42.66L39.742,40V38.373L47.491,34.5Z" transform="translate(-1 -3.336)"/>
        <path id="Trazado_873982" data-name="Trazado 873982" d="M0,0H1.55V7.748H0Z" transform="matrix(0.8, -0.6, 0.6, 0.8, 0.93, 0.93)"/>
        <path id="Trazado_873983" data-name="Trazado 873983" d="M0,0H1.55V7.748H0Z" transform="matrix(0.8, -0.6, 0.6, 0.8, 31.149, 9.453)"/>
        <path id="Trazado_873984" data-name="Trazado 873984" d="M0,0H1.55V4.961H0Z" transform="matrix(0.781, -0.625, 0.625, 0.781, 1.729, 24.969)"/>
        <path id="Trazado_873985" data-name="Trazado 873985" d="M0,0H1.55V4.961H0Z" transform="matrix(0.781, -0.625, 0.625, 0.781, 34.269, 6.362)"/>
        <path id="Trazado_873986" data-name="Trazado 873986" d="M0,0H1.55V3.874H0Z" transform="matrix(0.8, -0.6, 0.6, 0.8, 0.155, 9.453)"/>
        <path id="Trazado_873987" data-name="Trazado 873987" d="M0,0H1.55V3.874H0Z" transform="matrix(0.8, -0.6, 0.6, 0.8, 41.222, 15.652)"/>
        <path id="Trazado_873988" data-name="Trazado 873988" d="M0,0H1.55V3.874H0Z" transform="matrix(0.8, -0.6, 0.6, 0.8, 29.6, 17.209)"/>
        <path id="Trazado_873989" data-name="Trazado 873989" d="M0,0H1.55V3.874H0Z" transform="matrix(0.8, -0.6, 0.6, 0.8, 26.5, 4.029)"/>
        <path id="Trazado_873990" data-name="Trazado 873990" d="M11.163,53.81l2.18-.727-.49-1.471-2.067.69-.122-.488L7.246,50.1l-.693,1.387,2.781,1.39.761,3.044,2.573,1.716.86-1.289-2.076-1.384Z" transform="translate(-2.25 -12.366)"/>
        <path id="Trazado_873991" data-name="Trazado 873991" d="M53.308,28.334c-.9,1.354-8.05,1.9-13.282.587-2.536-.634-2.635-1.261-2.636-1.268-.029-.254.589-.83,1.246-1.162l-.347-.692-.346-.693c-.378.189-2.258,1.21-2.092,2.716.167,1.523,2.249,2.215,3.8,2.6a31.215,31.215,0,0,0,7.175.807c3.534,0,6.813-.594,7.774-2.04a1.881,1.881,0,0,0-.194-2.307l-1.24.93C53.424,28.158,53.346,28.276,53.308,28.334Z" transform="translate(-8.844 -6.737)"/>
        <path id="Trazado_873992" data-name="Trazado 873992" d="M53.2,33.961a1.654,1.654,0,0,0-.057-1.678l-1.289.859a.176.176,0,0,1-.02.087c-.057.106-.693,1.034-5.534,1.034-6.887,0-7.769-2.51-7.778-2.535l-1.5.4c.094.377,1.156,3.686,9.275,3.686,4.032,0,6.224-.588,6.9-1.852Z" transform="translate(-9.112 -8.229)"/>
        <path id="Trazado_873993" data-name="Trazado 873993" d="M51.422,37.1c-4.285,2.142-10.171-.011-10.229-.033l-.544,1.451A19.566,19.566,0,0,0,46.877,39.6a11.7,11.7,0,0,0,5.238-1.119Z" transform="translate(-9.927 -9.43)"/>
        <path id="Trazado_873994" data-name="Trazado 873994" d="M46.107,40.855l-.3,1.519a12.4,12.4,0,0,0,2.27.215,5.489,5.489,0,0,0,3.854-1.2l-1.1-1.1C49.811,41.314,47.008,41.034,46.107,40.855Z" transform="translate(-11.088 -10.157)"/>
        <path id="Trazado_873995" data-name="Trazado 873995" d="M52.162,24.8A34.482,34.482,0,0,0,45,24v1.55a33.429,33.429,0,0,1,6.785.752Z" transform="translate(-10.907 -6.489)"/>
      </g>
    </g>
  </g>
</svg>
