<svg xmlns="http://www.w3.org/2000/svg" xmlns:xlink="http://www.w3.org/1999/xlink" width="102" height="102" viewBox="0 0 102 102">
  <defs>
    <filter id="Rectángulo_401378" x="0" y="0" width="102" height="102" filterUnits="userSpaceOnUse">
      <feOffset input="SourceAlpha"/>
      <feGaussianBlur stdDeviation="2" result="blur"/>
      <feFlood flood-opacity="0.251"/>
      <feComposite operator="in" in2="blur"/>
      <feComposite in="SourceGraphic"/>
    </filter>
  </defs>
  <g id="Grupo_1099771" data-name="Grupo 1099771" transform="translate(6922.75 8542.416)">
    <g id="Grupo_1099630" data-name="Grupo 1099630" transform="translate(-7944.531 -10502.416)">
      <g id="Grupo_1099558" data-name="Grupo 1099558" transform="translate(1027.781 1966)">
        <g transform="matrix(1, 0, 0, 1, -6, -6)" filter="url(#Rectángulo_401378)">
          <g id="Rectángulo_401378-2" data-name="Rectángulo 401378" transform="translate(6 6)" fill="#a1c0f9" stroke="#fff" stroke-width="3">
            <path d="M29,0H61A29,29,0,0,1,90,29V61A29,29,0,0,1,61,90H0a0,0,0,0,1,0,0V29A29,29,0,0,1,29,0Z" stroke="none"/>
            <path d="M29,1.5H61A27.5,27.5,0,0,1,88.5,29V61A27.5,27.5,0,0,1,61,88.5H1.5a0,0,0,0,1,0,0V29A27.5,27.5,0,0,1,29,1.5Z" fill="none"/>
          </g>
        </g>
      </g>
    </g>
    <g id="calidad-del-agua" transform="translate(-6894.452 -8513.161)">
      <path id="Trazado_873841" data-name="Trazado 873841" d="M63.192,57.352v9.881a5.586,5.586,0,0,0,.59,2.5l.267.533a5.585,5.585,0,0,1,.59,2.5v6.084a2.718,2.718,0,0,0,2.718,2.718H79.269a2.718,2.718,0,0,0,2.718-2.718V72.762a5.586,5.586,0,0,1,.59-2.5l.267-.533a5.585,5.585,0,0,0,.59-2.5V57.352a3.258,3.258,0,0,0-3.258-3.258H66.45A3.258,3.258,0,0,0,63.192,57.352Z" transform="translate(-57.31 -49.058)" fill="#cbc4cc"/>
      <path id="Trazado_873842" data-name="Trazado 873842" d="M97.335,57.344a3.246,3.246,0,0,1,.3,1.373V68.6a5.586,5.586,0,0,1-.59,2.5l-.266.533a5.585,5.585,0,0,0-.59,2.5v6.084a2.718,2.718,0,0,1-2.718,2.718H81.561a2.712,2.712,0,0,1-.961-.175,2.719,2.719,0,0,0,2.543,1.757H95.057a2.718,2.718,0,0,0,2.718-2.718V75.709a5.586,5.586,0,0,1,.59-2.5l.266-.533a5.585,5.585,0,0,0,.59-2.5V60.3A3.258,3.258,0,0,0,97.335,57.344Z" transform="translate(-73.098 -52.006)" fill="#b5adb6"/>
      <path id="Trazado_873843" data-name="Trazado 873843" d="M53.764,391.789a.465.465,0,0,0-.484-.465c-3.379.149-3.54,1.851-7.227,1.851-3.856,0-3.855-1.862-7.711-1.862s-3.855,1.862-7.711,1.862-3.855-1.862-7.711-1.862-3.855,1.862-7.711,1.862c-3.687,0-3.848-1.7-7.227-1.851a.465.465,0,0,0-.484.465v9.6a.466.466,0,0,0,.465.465H53.3a.466.466,0,0,0,.465-.465Z" transform="translate(-6.802 -354.886)" fill="#62dbfb"/>
      <path id="Trazado_873844" data-name="Trazado 873844" d="M53.765,391.885a.465.465,0,0,0-.484-.465,8.051,8.051,0,0,0-1.378.172v8.027a.466.466,0,0,1-.465.465H7.5v1.4a.465.465,0,0,0,.465.465H53.3a.466.466,0,0,0,.465-.465Z" transform="translate(-6.803 -354.982)" fill="#01d0fb"/>
      <path id="Trazado_873845" data-name="Trazado 873845" d="M107.781,95.277h-12.6a.931.931,0,0,1-.931-.931V86.087a.931.931,0,0,1,.931-.931h12.6a.931.931,0,0,1,.931.931v8.259A.931.931,0,0,1,107.781,95.277Z" transform="translate(-85.481 -77.229)" fill="#f37c7c"/>
      <path id="Trazado_873846" data-name="Trazado 873846" d="M107.781,85.156h-.931v7.328a.931.931,0,0,1-.931.931H94.254v.931a.931.931,0,0,0,.931.931h12.6a.931.931,0,0,0,.931-.931V86.087A.931.931,0,0,0,107.781,85.156Z" transform="translate(-85.481 -77.229)" fill="#ee6161"/>
      <path id="Trazado_873847" data-name="Trazado 873847" d="M354.039,333.656h-3.921a.931.931,0,0,0-.931.931V343.4c2.63.252,3.152,1.522,5.783,1.775V334.587A.931.931,0,0,0,354.039,333.656Z" transform="translate(-316.682 -302.596)" fill="#bbec6c"/>
      <path id="Trazado_873848" data-name="Trazado 873848" d="M354.039,333.656h-.465v8.759a.466.466,0,0,1-.542.459c-1.691-.281-2.446-1.013-3.844-1.436V343.4c2.63.252,3.152,1.522,5.783,1.775V334.587A.931.931,0,0,0,354.039,333.656Z" transform="translate(-316.682 -302.596)" fill="#a2e62e"/>
      <path id="Trazado_873849" data-name="Trazado 873849" d="M100.979,89.173h-12.6a1.631,1.631,0,0,1-1.629-1.629V79.285a1.631,1.631,0,0,1,1.629-1.629h1.961a.7.7,0,1,1,0,1.4H88.383a.233.233,0,0,0-.233.233v8.259a.233.233,0,0,0,.233.233h12.6a.233.233,0,0,0,.233-.233V79.285a.233.233,0,0,0-.233-.233H93.6a.7.7,0,0,1,0-1.4h7.377a1.631,1.631,0,0,1,1.629,1.629v8.259A1.631,1.631,0,0,1,100.979,89.173Z" transform="translate(-78.679 -70.427)"/>
      <path id="Trazado_873850" data-name="Trazado 873850" d="M151.023,142.623a.7.7,0,0,1-.494-.2l-1.446-1.446a.7.7,0,0,1,.987-.987l.952.952.952-.952a.7.7,0,0,1,.987.987l-1.446,1.446A.7.7,0,0,1,151.023,142.623Z" transform="translate(-135.021 -126.769)"/>
      <path id="Línea_566" data-name="Línea 566" d="M-6.8-1.953a.7.7,0,0,1-.7-.7V-6.8a.7.7,0,0,1,.7-.7.7.7,0,0,1,.7.7v4.151A.7.7,0,0,1-6.8-1.953Z" transform="translate(22.804 17.621)"/>
      <path id="Trazado_873851" data-name="Trazado 873851" d="M59.648,46.594H73.373a3.961,3.961,0,0,1,3.956,3.956v9.881a6.315,6.315,0,0,1-.663,2.81l-.267.533a4.913,4.913,0,0,0-.516,2.186v6.084a3.42,3.42,0,0,1-3.416,3.416H60.554a3.42,3.42,0,0,1-3.416-3.416V65.96a4.911,4.911,0,0,0-.516-2.186l-.266-.533a6.317,6.317,0,0,1-.663-2.81V50.55A3.961,3.961,0,0,1,59.648,46.594Zm12.819,27.47a2.022,2.022,0,0,0,2.02-2.02V65.96a6.317,6.317,0,0,1,.663-2.81l.267-.533a4.911,4.911,0,0,0,.516-2.186V50.55a2.563,2.563,0,0,0-2.56-2.56H59.648a2.563,2.563,0,0,0-2.56,2.56v9.881a4.913,4.913,0,0,0,.516,2.186l.266.533a6.315,6.315,0,0,1,.663,2.81v6.084a2.022,2.022,0,0,0,2.02,2.02Z" transform="translate(-50.509 -42.257)"/>
      <path id="Trazado_873852" data-name="Trazado 873852" d="M184.5,31.758a.7.7,0,0,1-.7-.7V2.56A1.165,1.165,0,0,0,182.641,1.4h-15.67a1.165,1.165,0,0,0-1.164,1.164V5.036a.7.7,0,1,1-1.4,0V2.56A2.563,2.563,0,0,1,166.971,0h15.67a2.563,2.563,0,0,1,2.56,2.56v28.5A.7.7,0,0,1,184.5,31.758Z" transform="translate(-149.107)"/>
      <path id="Línea_567" data-name="Línea 567" d="M-5.356-6.1H-6.8a.7.7,0,0,1-.7-.7.7.7,0,0,1,.7-.7h1.446a.7.7,0,0,1,.7.7A.7.7,0,0,1-5.356-6.1Z" transform="translate(17.744 27.741)"/>
      <path id="Línea_568" data-name="Línea 568" d="M-5.356-6.1H-6.8a.7.7,0,0,1-.7-.7.7.7,0,0,1,.7-.7h1.446a.7.7,0,0,1,.7.7A.7.7,0,0,1-5.356-6.1Z" transform="translate(22.081 27.741)"/>
      <path id="Línea_569" data-name="Línea 569" d="M-5.356-6.1H-6.8a.7.7,0,0,1-.7-.7.7.7,0,0,1,.7-.7h1.446a.7.7,0,0,1,.7.7A.7.7,0,0,1-5.356-6.1Z" transform="translate(26.418 27.741)"/>
      <path id="Línea_570" data-name="Línea 570" d="M-5.356-6.1H-6.8a.7.7,0,0,1-.7-.7.7.7,0,0,1,.7-.7h1.446a.7.7,0,0,1,.7.7A.7.7,0,0,1-5.356-6.1Z" transform="translate(17.744 30.633)"/>
      <path id="Línea_571" data-name="Línea 571" d="M-5.356-6.1H-6.8a.7.7,0,0,1-.7-.7.7.7,0,0,1,.7-.7h1.446a.7.7,0,0,1,.7.7A.7.7,0,0,1-5.356-6.1Z" transform="translate(22.081 30.633)"/>
      <path id="Línea_572" data-name="Línea 572" d="M-5.356-6.1H-6.8a.7.7,0,0,1-.7-.7.7.7,0,0,1,.7-.7h1.446a.7.7,0,0,1,.7.7A.7.7,0,0,1-5.356-6.1Z" transform="translate(26.418 30.633)"/>
      <path id="Línea_573" data-name="Línea 573" d="M-5.356-6.1H-6.8a.7.7,0,0,1-.7-.7.7.7,0,0,1,.7-.7h1.446a.7.7,0,0,1,.7.7A.7.7,0,0,1-5.356-6.1Z" transform="translate(17.744 33.524)"/>
      <path id="Línea_574" data-name="Línea 574" d="M-5.356-6.1H-6.8a.7.7,0,0,1-.7-.7.7.7,0,0,1,.7-.7h1.446a.7.7,0,0,1,.7.7A.7.7,0,0,1-5.356-6.1Z" transform="translate(22.081 33.524)"/>
      <path id="Línea_575" data-name="Línea 575" d="M-5.356-6.1H-6.8a.7.7,0,0,1-.7-.7.7.7,0,0,1,.7-.7h1.446a.7.7,0,0,1,.7.7A.7.7,0,0,1-5.356-6.1Z" transform="translate(26.418 33.524)"/>
      <path id="Línea_576" data-name="Línea 576" d="M-5.356-6.1H-6.8a.7.7,0,0,1-.7-.7.7.7,0,0,1,.7-.7h1.446a.7.7,0,0,1,.7.7A.7.7,0,0,1-5.356-6.1Z" transform="translate(17.744 36.416)"/>
      <path id="Línea_577" data-name="Línea 577" d="M-5.356-6.1H-6.8a.7.7,0,0,1-.7-.7.7.7,0,0,1,.7-.7h1.446a.7.7,0,0,1,.7.7A.7.7,0,0,1-5.356-6.1Z" transform="translate(22.081 36.416)"/>
      <path id="Línea_578" data-name="Línea 578" d="M-5.356-6.1H-6.8a.7.7,0,0,1-.7-.7.7.7,0,0,1,.7-.7h1.446a.7.7,0,0,1,.7.7A.7.7,0,0,1-5.356-6.1Z" transform="translate(26.418 36.416)"/>
      <path id="Trazado_873853" data-name="Trazado 873853" d="M292.788,433.664a8.4,8.4,0,0,1-4.159-1,7.754,7.754,0,0,0-7.1,0c-.326.157-.652.314-1.012.455a.7.7,0,1,1-.51-1.3c.325-.128.62-.27.914-.413a9.146,9.146,0,0,1,8.318,0,7.754,7.754,0,0,0,7.1,0c.326-.158.653-.314,1.013-.456a.7.7,0,1,1,.51,1.3c-.326.128-.62.271-.915.413A8.4,8.4,0,0,1,292.788,433.664Z" transform="translate(-253.537 -390.34)"/>
      <path id="Línea_579" data-name="Línea 579" d="M-6.8.415a.7.7,0,0,1-.7-.7V-6.8a.7.7,0,0,1,.7-.7.7.7,0,0,1,.7.7V-.283A.7.7,0,0,1-6.8.415Z" transform="translate(45.09 42.773)"/>
      <path id="Trazado_873854" data-name="Trazado 873854" d="M342.385,337.207a.7.7,0,0,1-.7-.7v-8.724a1.631,1.631,0,0,1,1.629-1.629h3.921a1.631,1.631,0,0,1,1.629,1.629v.722a.7.7,0,0,1-1.4,0v-.722a.233.233,0,0,0-.233-.233h-3.921a.233.233,0,0,0-.233.233v8.724A.7.7,0,0,1,342.385,337.207Z" transform="translate(-309.881 -295.794)"/>
      <path id="Línea_580" data-name="Línea 580" d="M-5.356-6.1H-6.8a.7.7,0,0,1-.7-.7.7.7,0,0,1,.7-.7h1.446a.7.7,0,0,1,.7.7A.7.7,0,0,1-5.356-6.1Z" transform="translate(36.663 19.49)"/>
      <path id="Línea_581" data-name="Línea 581" d="M-6.8-5.081a.7.7,0,0,1-.494-.2.7.7,0,0,1,0-.987L-6.273-7.3a.7.7,0,0,1,.987,0,.7.7,0,0,1,0,.987L-6.308-5.286A.7.7,0,0,1-6.8-5.081Z" transform="translate(35.816 15.576)"/>
      <path id="Línea_582" data-name="Línea 582" d="M-5.78-5.081a.7.7,0,0,1-.494-.2L-7.3-6.308a.7.7,0,0,1,0-.987.7.7,0,0,1,.987,0l1.022,1.022a.7.7,0,0,1,0,.987A.7.7,0,0,1-5.78-5.081Z" transform="translate(35.816 22.381)"/>
      <path id="Línea_583" data-name="Línea 583" d="M-5.356-6.1H-6.8a.7.7,0,0,1-.7-.7.7.7,0,0,1,.7-.7h1.446a.7.7,0,0,1,.7.7A.7.7,0,0,1-5.356-6.1Z" transform="translate(7.499 19.49)"/>
      <path id="Línea_584" data-name="Línea 584" d="M-5.78-5.081a.7.7,0,0,1-.494-.2L-7.3-6.308a.7.7,0,0,1,0-.987.7.7,0,0,1,.987,0l1.022,1.022a.7.7,0,0,1,0,.987A.7.7,0,0,1-5.78-5.081Z" transform="translate(8.769 15.576)"/>
      <path id="Línea_585" data-name="Línea 585" d="M-6.8-5.081a.7.7,0,0,1-.494-.2.7.7,0,0,1,0-.987L-6.273-7.3a.7.7,0,0,1,.987,0,.7.7,0,0,1,0,.987L-6.308-5.286A.7.7,0,0,1-6.8-5.081Z" transform="translate(8.769 22.381)"/>
      <path id="Trazado_873855" data-name="Trazado 873855" d="M110.982,395.842H71.8a.7.7,0,1,1,0-1.4h38.948V385.33a6.968,6.968,0,0,0-2.854.838,8.4,8.4,0,0,1-4.159,1c-.352,0-.673-.015-.97-.041a.7.7,0,1,1,.124-1.391c.259.023.539.036.846.036a7.026,7.026,0,0,0,3.552-.861,8.324,8.324,0,0,1,3.644-.989,1.163,1.163,0,0,1,1.213,1.163v9.6A1.165,1.165,0,0,1,110.982,395.842Z" transform="translate(-64.485 -348.181)"/>
      <path id="Trazado_873856" data-name="Trazado 873856" d="M4.058,395.746h-2.9A1.165,1.165,0,0,1,0,394.582v-9.6a1.163,1.163,0,0,1,1.213-1.163,8.323,8.323,0,0,1,3.644.989,7.024,7.024,0,0,0,3.552.861,7.024,7.024,0,0,0,3.552-.861,8.4,8.4,0,0,1,4.159-1,8.4,8.4,0,0,1,4.159,1,7.024,7.024,0,0,0,3.552.861,7.024,7.024,0,0,0,3.552-.861,8.4,8.4,0,0,1,4.159-1c.349,0,.669.014.964.041a.7.7,0,1,1-.123,1.391c-.257-.023-.536-.035-.841-.035a7.025,7.025,0,0,0-3.552.861,8.4,8.4,0,0,1-4.159,1,8.4,8.4,0,0,1-4.159-1,7.025,7.025,0,0,0-3.552-.861,7.025,7.025,0,0,0-3.552.861,8.4,8.4,0,0,1-4.159,1,8.4,8.4,0,0,1-4.159-1,6.967,6.967,0,0,0-2.854-.838v9.116H4.058a.7.7,0,1,1,0,1.4Z" transform="translate(0 -348.084)"/>
    </g>
  </g>
</svg>
