<svg xmlns="http://www.w3.org/2000/svg" xmlns:xlink="http://www.w3.org/1999/xlink" width="102" height="102" viewBox="0 0 102 102">
  <defs>
    <filter id="Rect치ngulo_401378" x="0" y="0" width="102" height="102" filterUnits="userSpaceOnUse">
      <feOffset input="SourceAlpha"/>
      <feGaussianBlur stdDeviation="2" result="blur"/>
      <feFlood flood-opacity="0.251"/>
      <feComposite operator="in" in2="blur"/>
      <feComposite in="SourceGraphic"/>
    </filter>
  </defs>
  <g id="Grupo_1099769" data-name="Grupo 1099769" transform="translate(-1115.051 -2314)">
    <g id="Grupo_1099623" data-name="Grupo 1099623" transform="translate(93.27 354)">
      <g id="Grupo_1099558" data-name="Grupo 1099558" transform="translate(1027.781 1966)">
        <g transform="matrix(1, 0, 0, 1, -6, -6)" filter="url(#Rect치ngulo_401378)">
          <g id="Rect치ngulo_401378-2" data-name="Rect치ngulo 401378" transform="translate(6 6)" fill="#a1c0f9" stroke="#fff" stroke-width="3">
            <path d="M29,0H61A29,29,0,0,1,90,29V61A29,29,0,0,1,61,90H0a0,0,0,0,1,0,0V29A29,29,0,0,1,29,0Z" stroke="none"/>
            <path d="M29,1.5H61A27.5,27.5,0,0,1,88.5,29V61A27.5,27.5,0,0,1,61,88.5H1.5a0,0,0,0,1,0,0V29A27.5,27.5,0,0,1,29,1.5Z" fill="none"/>
          </g>
        </g>
      </g>
    </g>
    <g id="filledoutline" transform="translate(1139.051 2338)">
      <path id="Trazado_873781" data-name="Trazado 873781" d="M21.1,3,3,20.273H7.935V37.546H34.256V20.273h4.935Z" transform="translate(-0.178 -0.177)" fill="#31a469"/>
      <path id="Trazado_873782" data-name="Trazado 873782" d="M38.812,22.083H54.595v18.85H38.812Z" transform="translate(-6.533 -3.564)" fill="#ff9300"/>
      <path id="Trazado_873783" data-name="Trazado 873783" d="M35.321,21.185V38.458H9V21.185L22.16,8.14Z" transform="translate(-1.242 -1.09)" fill="#ffc200"/>
      <path id="Trazado_873784" data-name="Trazado 873784" d="M39.191,20.273H34.256L21.1,7.228,7.935,20.273H3L21.1,3Z" transform="translate(-0.178 -0.177)" fill="#23a24d"/>
      <path id="Trazado_873785" data-name="Trazado 873785" d="M27,28h8.225v4.935H27Z" transform="translate(-4.437 -4.614)" fill="#ff9300"/>
      <path id="Trazado_873786" data-name="Trazado 873786" d="M13,28h6.58V41.983H13Z" transform="translate(-1.952 -4.614)" fill="#ff9300"/>
      <path id="Trazado_873787" data-name="Trazado 873787" d="M54.611,20.273H43.1L25,3H36.515Z" transform="translate(-4.082 -0.177)" fill="#52cd8d"/>
      <path id="Trazado_873788" data-name="Trazado 873788" d="M45,28h7.4v4.935H45Z" transform="translate(-7.632 -4.614)" fill="#ffc200"/>
      <path id="Trazado_873789" data-name="Trazado 873789" d="M50.058,56.918H4L3.979,39.633a3.421,3.421,0,0,0,2.232-.563l.689-.494a3.527,3.527,0,0,1,3.86,0l.688.494a3.527,3.527,0,0,0,3.86,0L16,38.576a3.527,3.527,0,0,1,3.86,0l.689.494a3.527,3.527,0,0,0,3.86,0l.688-.494a3.527,3.527,0,0,1,3.86,0l.689.494a3.527,3.527,0,0,0,3.86,0l.689-.494a3.527,3.527,0,0,1,3.86,0l.689.494a3.525,3.525,0,0,0,3.859,0l.689-.494a3.527,3.527,0,0,1,3.86,0l.689.494a3.412,3.412,0,0,0,2.215.565Z" transform="translate(-0.351 -6.389)" fill="#5788f8"/>
      <path id="Trazado_873790" data-name="Trazado 873790" d="M22.888,13.247l-6.43,6.745,1.19,1.136L23.484,15l5.84,6.12,1.186-1.133-6.43-6.745a.85.85,0,0,0-1.191,0Z" transform="translate(-2.566 -1.953)"/>
      <path id="Trazado_873791" data-name="Trazado 873791" d="M26,27.823v4.935a.823.823,0,0,0,.823.823h8.225a.823.823,0,0,0,.823-.823V27.823A.823.823,0,0,0,35.048,27H26.823A.823.823,0,0,0,26,27.823Zm1.645.823h6.58v3.29h-6.58Z" transform="translate(-4.259 -4.437)"/>
      <path id="Trazado_873792" data-name="Trazado 873792" d="M12,27.823V33.58h1.645V28.645H18.58V33.58h1.645V27.823A.823.823,0,0,0,19.4,27h-6.58A.823.823,0,0,0,12,27.823Z" transform="translate(-1.775 -4.437)"/>
      <path id="Trazado_873793" data-name="Trazado 873793" d="M51.1,19.5,33,2.227A.823.823,0,0,0,32.433,2H20.918a.815.815,0,0,0-.562.234l-.006-.007L2.255,19.5a.823.823,0,0,0,.568,1.418H6.935v8.225H8.58V20.452L20.918,8.885,33.256,20.452v8.691H34.9V20.918H47.239v9.048h1.645V20.918h1.645A.823.823,0,0,0,51.1,19.5ZM21.481,7.162a.823.823,0,0,0-1.125,0L7.433,19.273H4.879L20.918,3.96,36.957,19.273h-2.55ZM39.343,19.273,22.974,3.645H32.1L48.473,19.273Z" transform="translate(0)"/>
      <path id="Trazado_873794" data-name="Trazado 873794" d="M52.225,33.58a.823.823,0,0,0,.823-.823V27.823A.823.823,0,0,0,52.225,27h-7.4a.823.823,0,0,0-.823.823v4.935a.823.823,0,0,0,.823.823Zm-6.58-4.935H51.4v3.29H45.645Z" transform="translate(-7.454 -4.437)"/>
      <path id="Trazado_873795" data-name="Trazado 873795" d="M47.359,38.234l-.665-.494a4.132,4.132,0,0,0-4.713,0l-.666.494a2.479,2.479,0,0,1-2.751,0l-.665-.494a4.13,4.13,0,0,0-4.712,0l-.668.494a2.477,2.477,0,0,1-2.749,0l-.666-.494a4.132,4.132,0,0,0-4.713,0l-.666.494a2.479,2.479,0,0,1-2.751,0l-.665-.494a4.133,4.133,0,0,0-4.714,0l-.665.494a2.479,2.479,0,0,1-2.751,0l-.666-.494a4.128,4.128,0,0,0-4.711,0l-.669.494a2.478,2.478,0,0,1-2.748,0L2.4,39.55a4.132,4.132,0,0,0,4.712,0l.668-.494a2.477,2.477,0,0,1,2.749,0l.666.494a4.132,4.132,0,0,0,4.713,0l.666-.494a2.478,2.478,0,0,1,2.75,0l.665.494a4.133,4.133,0,0,0,4.714,0l.665-.494a2.479,2.479,0,0,1,2.751,0l.665.494a4.133,4.133,0,0,0,4.712,0l.668-.494a2.477,2.477,0,0,1,2.749,0l.666.494a4.132,4.132,0,0,0,4.713,0l.666-.494a2.479,2.479,0,0,1,2.751,0l.665.494a4.131,4.131,0,0,0,4.714,0l-.982-1.316a2.478,2.478,0,0,1-2.747,0Z" transform="translate(-0.071 -6.212)"/>
      <path id="Trazado_873796" data-name="Trazado 873796" d="M47.359,44.234l-.665-.494a4.132,4.132,0,0,0-4.713,0l-.666.494a2.479,2.479,0,0,1-2.751,0l-.665-.494a4.128,4.128,0,0,0-4.712,0l-.668.494a2.477,2.477,0,0,1-2.749,0l-.666-.494a4.132,4.132,0,0,0-4.713,0l-.666.494a2.479,2.479,0,0,1-2.751,0l-.665-.494a4.133,4.133,0,0,0-4.714,0l-.665.494a2.479,2.479,0,0,1-2.751,0l-.666-.494a4.127,4.127,0,0,0-4.711,0l-.669.494a2.478,2.478,0,0,1-2.748,0L2.4,45.55a4.132,4.132,0,0,0,4.712,0l.668-.494a2.477,2.477,0,0,1,2.749,0l.666.494a4.132,4.132,0,0,0,4.713,0l.666-.494a2.478,2.478,0,0,1,2.75,0l.665.494a4.133,4.133,0,0,0,4.714,0l.665-.494a2.479,2.479,0,0,1,2.751,0l.665.494a4.133,4.133,0,0,0,4.712,0l.668-.494a2.477,2.477,0,0,1,2.749,0l.666.494a4.132,4.132,0,0,0,4.713,0l.666-.494a2.479,2.479,0,0,1,2.751,0l.665.494a4.131,4.131,0,0,0,4.714,0l-.982-1.316a2.478,2.478,0,0,1-2.747,0Z" transform="translate(-0.071 -7.277)"/>
      <path id="Trazado_873797" data-name="Trazado 873797" d="M47.359,50.234l-.665-.494a4.132,4.132,0,0,0-4.713,0l-.666.494a2.479,2.479,0,0,1-2.751,0l-.665-.494a4.13,4.13,0,0,0-4.712,0l-.668.494a2.477,2.477,0,0,1-2.749,0l-.666-.494a4.132,4.132,0,0,0-4.713,0l-.666.494a2.479,2.479,0,0,1-2.751,0l-.665-.494a4.133,4.133,0,0,0-4.714,0l-.665.494a2.479,2.479,0,0,1-2.751,0l-.666-.494a4.128,4.128,0,0,0-4.711,0l-.669.494a2.478,2.478,0,0,1-2.748,0L2.4,51.55a4.132,4.132,0,0,0,4.712,0l.668-.494a2.477,2.477,0,0,1,2.749,0l.666.494a4.132,4.132,0,0,0,4.713,0l.666-.494a2.478,2.478,0,0,1,2.75,0l.665.494a4.133,4.133,0,0,0,4.714,0l.665-.494a2.479,2.479,0,0,1,2.751,0l.665.494a4.133,4.133,0,0,0,4.712,0l.668-.494a2.477,2.477,0,0,1,2.749,0l.666.494a4.132,4.132,0,0,0,4.713,0l.666-.494a2.479,2.479,0,0,1,2.751,0l.665.494a4.131,4.131,0,0,0,4.714,0l-.982-1.316a2.478,2.478,0,0,1-2.747,0Z" transform="translate(-0.071 -8.342)"/>
      <path id="Trazado_873798" data-name="Trazado 873798" d="M47.359,56.234l-.665-.494a4.132,4.132,0,0,0-4.713,0l-.666.494a2.479,2.479,0,0,1-2.751,0l-.665-.494a4.13,4.13,0,0,0-4.712,0l-.668.494a2.477,2.477,0,0,1-2.749,0l-.666-.494a4.132,4.132,0,0,0-4.713,0l-.666.494a2.479,2.479,0,0,1-2.751,0l-.665-.494a4.133,4.133,0,0,0-4.714,0l-.665.494a2.479,2.479,0,0,1-2.751,0l-.666-.494a4.128,4.128,0,0,0-4.711,0l-.669.494a2.478,2.478,0,0,1-2.748,0L2.4,57.55a4.131,4.131,0,0,0,4.712,0l.668-.494a2.477,2.477,0,0,1,2.749,0l.666.494a4.132,4.132,0,0,0,4.713,0l.666-.494a2.478,2.478,0,0,1,2.75,0l.665.494a4.133,4.133,0,0,0,4.714,0l.665-.494a2.479,2.479,0,0,1,2.751,0l.665.494a4.133,4.133,0,0,0,4.712,0l.668-.494a2.477,2.477,0,0,1,2.749,0l.666.494a4.132,4.132,0,0,0,4.713,0l.666-.494a2.479,2.479,0,0,1,2.751,0l.665.494a4.131,4.131,0,0,0,4.714,0l-.982-1.316a2.478,2.478,0,0,1-2.747,0Z" transform="translate(-0.071 -9.407)"/>
    </g>
  </g>
</svg>
