<svg xmlns="http://www.w3.org/2000/svg" xmlns:xlink="http://www.w3.org/1999/xlink" width="102" height="102" viewBox="0 0 102 102">
  <defs>
    <filter id="Rect치ngulo_401378" x="0" y="0" width="102" height="102" filterUnits="userSpaceOnUse">
      <feOffset input="SourceAlpha"/>
      <feGaussianBlur stdDeviation="2" result="blur"/>
      <feFlood flood-opacity="0.251"/>
      <feComposite operator="in" in2="blur"/>
      <feComposite in="SourceGraphic"/>
    </filter>
    <clipPath id="clip-path">
      <path id="path5094" d="M0-682.665H50.173v50.173H0Z" transform="translate(0 682.665)"/>
    </clipPath>
  </defs>
  <g id="Grupo_1099766" data-name="Grupo 1099766" transform="translate(6606.469 8908.416)">
    <g id="Grupo_1099629" data-name="Grupo 1099629" transform="translate(-7628.25 -10868.416)">
      <g id="Grupo_1099558" data-name="Grupo 1099558" transform="translate(1027.781 1966)">
        <g transform="matrix(1, 0, 0, 1, -6, -6)" filter="url(#Rect치ngulo_401378)">
          <g id="Rect치ngulo_401378-2" data-name="Rect치ngulo 401378" transform="translate(6 6)" fill="#a1c0f9" stroke="#fff" stroke-width="3">
            <path d="M29,0H61A29,29,0,0,1,90,29V61A29,29,0,0,1,61,90H0a0,0,0,0,1,0,0V29A29,29,0,0,1,29,0Z" stroke="none"/>
            <path d="M29,1.5H61A27.5,27.5,0,0,1,88.5,29V61A27.5,27.5,0,0,1,61,88.5H1.5a0,0,0,0,1,0,0V29A27.5,27.5,0,0,1,29,1.5Z" fill="none"/>
          </g>
        </g>
      </g>
    </g>
    <g id="g5088" transform="translate(-6579.836 -8197.723)">
      <g id="g5090" transform="translate(0 -682.665)">
        <g id="g5092" clip-path="url(#clip-path)">
          <g id="g5098" transform="translate(4.381 0.735)">
            <path id="path5100" d="M-481.286-373.529a19.081,19.081,0,0,1-19.089,19.073,19.081,19.081,0,0,1-19.089-19.073c0-9.311,14.916-25.655,18.378-29.323a.978.978,0,0,1,1.423,0c3.462,3.668,18.378,20.012,18.378,29.323" transform="translate(519.464 403.16)" fill="#b3dafe"/>
          </g>
          <g id="g5102" transform="translate(22 0.735)">
            <path id="path5104" d="M-27.5-3.871a.978.978,0,0,0-1.423,0c-.212.224-.467.5-.758.812,4.473,4.83,17.619,19.77,17.619,28.512A19.081,19.081,0,0,1-29.681,44.469q.728.055,1.47.056A19.081,19.081,0,0,0-9.122,25.452C-9.122,16.141-24.038-.2-27.5-3.871" transform="translate(29.681 4.178)" fill="#8ac9fe"/>
          </g>
          <g id="g5106" transform="translate(5.105 30.332)">
            <path id="path5108" d="M-471.518-17.849c-5.32-2.254-11.086-1.814-25.97,1.3-3.352.7-7.186,1.541-11.433,2.542A19.1,19.1,0,0,0-490.557-.159a19.083,19.083,0,0,0,19.039-17.691" transform="translate(508.921 19.265)" fill="#60b7ff"/>
          </g>
          <g id="g5110" transform="translate(22.006 30.809)">
            <path id="path5112" d="M-26.582-234.694c.106,0,.211-.007.316-.012l.191-.012c.1-.006.19-.011.285-.018l.2-.017.27-.024.209-.023.261-.03.212-.028.254-.035.214-.034.248-.041.215-.039.244-.047.214-.044.24-.052.214-.05.236-.058.214-.055.232-.063.213-.06.228-.068.213-.066.225-.073.211-.071.222-.078.21-.076.218-.083.209-.081.213-.087.209-.087.208-.091.208-.092.2-.094.209-.1.2-.1.211-.105.184-.1c.072-.038.144-.075.216-.114l.16-.09q.452-.252.889-.527l.1-.063c.081-.052.161-.105.242-.158l.133-.088c.077-.052.152-.1.228-.157l.14-.1c.074-.053.148-.106.222-.16l.14-.1c.073-.054.144-.109.216-.164l.139-.107c.071-.055.141-.112.212-.168l.137-.11c.07-.057.139-.115.208-.173l.133-.113q.1-.089.206-.18l.128-.114.2-.186.124-.115q.1-.1.2-.192l.119-.116.2-.2.113-.116.2-.206.107-.115q.1-.107.2-.215l.1-.113q.1-.111.195-.224l.093-.109c.065-.078.131-.155.195-.234l.084-.1q.1-.123.2-.247l.072-.094q.1-.13.2-.262l.059-.081c.069-.093.137-.187.2-.282l.04-.058c.072-.1.144-.207.215-.312l.011-.016a19.035,19.035,0,0,0,1.664-3.056l.014-.032q.077-.18.151-.363l.022-.054q.07-.176.137-.353l.026-.068q.065-.173.125-.347l.028-.079c.04-.114.078-.229.115-.345l.028-.086q.055-.172.106-.344l.027-.09q.051-.172.1-.345l.025-.093q.046-.173.09-.348l.023-.093q.042-.176.082-.353l.02-.091q.039-.179.074-.359l.017-.087q.035-.183.067-.368l.013-.08q.031-.189.059-.378l.01-.071c.019-.13.036-.261.052-.392,0-.018,0-.037.006-.055.016-.137.031-.274.044-.411l0-.03q.021-.218.037-.438a17.056,17.056,0,0,0-2.895-.939,19.081,19.081,0,0,1-17.608,18.573l.136.01.164.011.231.012.155.007.258.008.13,0q.195,0,.39,0,.242,0,.482-.006l.163-.006" transform="translate(28.691 253.311)" fill="#26a6fe"/>
          </g>
          <g id="g5114" transform="translate(25.674 4.018)">
            <path id="path5116" d="M-253.245-126.622a10.044,10.044,0,0,1-10.044,10.044,10.044,10.044,0,0,1-10.044-10.044,10.044,10.044,0,0,1,10.044-10.044,10.044,10.044,0,0,1,10.044,10.044" transform="translate(273.334 136.666)" fill="#97d729"/>
          </g>
          <g id="g5118" transform="translate(34.289 4.005)">
            <path id="path5120" d="M-18.53,0A10.111,10.111,0,0,0-20,.107a10.036,10.036,0,0,1,8.564,9.926A10.036,10.036,0,0,1-20,19.96a10.125,10.125,0,0,0,1.47.107A10.034,10.034,0,0,0-8.5,10.034,10.034,10.034,0,0,0-18.53,0" transform="translate(20)" fill="#8bc727"/>
          </g>
          <g id="g5122" transform="translate(29.583 9.696)">
            <path id="path5124" d="M-63.537-109.488a2.113,2.113,0,0,1-1.5-.623l-3.068-3.068a1.6,1.6,0,0,1,0-2.256,1.6,1.6,0,0,1,2.256,0l2.316,2.316,4.586-4.586a1.6,1.6,0,0,1,2.256,0,1.6,1.6,0,0,1,0,2.256l-5.338,5.338a2.113,2.113,0,0,1-1.5.623" transform="translate(68.577 118.173)" fill="#f9f7f8"/>
          </g>
          <g id="g5126" transform="translate(4.381 27.136)">
            <path id="path5128" d="M-330.489-93.156c-9.98-1.644-15.184-8.028-25.743-7.338a12.272,12.272,0,0,0-.473,3.177,19.081,19.081,0,0,0,19.089,19.073,19.091,19.091,0,0,0,18.722-15.338,30.084,30.084,0,0,1-11.6.425" transform="translate(356.706 100.545)" fill="#0593fc"/>
          </g>
          <g id="g5130" transform="translate(21.993 34.1)">
            <path id="path5132" d="M-216.1-6.81A19.094,19.094,0,0,1-233.246,7.931q.731.056,1.477.056A19.091,19.091,0,0,0-213.047-7.351c-1.062.237-2.081.414-3.056.54" transform="translate(233.246 7.351)" fill="#0182fc"/>
          </g>
          <g id="g5134" transform="translate(3.646 0)">
            <path id="path5136" d="M-42.217-503.572a.735.735,0,0,1-.634-.363,19.78,19.78,0,0,1-2.715-10.011c0-9.414,14.22-25.211,18.578-29.828a1.721,1.721,0,0,1,1.246-.537,1.721,1.721,0,0,1,1.246.537c.914.969,2.771,2.975,4.938,5.528a.735.735,0,0,1-.085,1.036.735.735,0,0,1-1.036-.085c-2.144-2.527-3.982-4.511-4.886-5.47a.242.242,0,0,0-.177-.076.242.242,0,0,0-.177.076C-28.955-539.55-44.1-523.047-44.1-513.946a18.309,18.309,0,0,0,2.513,9.267.735.735,0,0,1-.261,1.006A.732.732,0,0,1-42.217-503.572Z" transform="translate(45.567 544.311)"/>
          </g>
          <g id="g5138" transform="translate(8.273 22.179)">
            <path id="path5140" d="M-422.479,17.992A19.824,19.824,0,0,1-437.5,11.114a.735.735,0,0,1,.076-1.037.735.735,0,0,1,1.037.076,18.355,18.355,0,0,0,13.905,6.368A18.367,18.367,0,0,0-404.124-1.816a17.341,17.341,0,0,0-2.046-7.133.735.735,0,0,1,.344-.981.735.735,0,0,1,.981.344,18.726,18.726,0,0,1,2.191,7.77A19.838,19.838,0,0,1-422.479,17.992Z" transform="translate(437.675 10.002)"/>
          </g>
          <g id="g5142" transform="translate(21.481 29.6)">
            <path id="path5144" d="M-9.268-28.338a.735.735,0,0,1-.721-.6A.735.735,0,0,1-9.4-29.8C1.578-31.874,6.612-31.9,11.314-29.91a.735.735,0,0,1,.39.963.735.735,0,0,1-.963.39c-4.392-1.861-9.22-1.811-19.87.205A.739.739,0,0,1-9.268-28.338Z" transform="translate(10.002 31.379)"/>
          </g>
          <g id="g5146" transform="translate(24.988 3.234)">
            <path id="path5148" d="M-238.227-34.526a10.792,10.792,0,0,1-10.779-10.779,10.792,10.792,0,0,1,10.779-10.779,10.789,10.789,0,0,1,5.216,1.344.735.735,0,0,1,.287,1,.735.735,0,0,1-1,.287,9.316,9.316,0,0,0-4.5-1.16,9.32,9.32,0,0,0-9.31,9.31A9.32,9.32,0,0,0-238.227-36a9.32,9.32,0,0,0,9.309-9.309,9.3,9.3,0,0,0-2.338-6.17.735.735,0,0,1,.063-1.037.735.735,0,0,1,1.037.063,10.766,10.766,0,0,1,2.708,7.145A10.792,10.792,0,0,1-238.227-34.526Z" transform="translate(249.006 56.085)"/>
          </g>
          <g id="g5150" transform="translate(28.848 8.961)">
            <path id="path5152" d="M-72.8-118.018a2.843,2.843,0,0,1-2.024-.839l-3.068-3.068a2.315,2.315,0,0,1-.683-1.648,2.315,2.315,0,0,1,.683-1.648,2.315,2.315,0,0,1,1.648-.683,2.315,2.315,0,0,1,1.648.683l1.8,1.8,4.067-4.067a2.315,2.315,0,0,1,1.648-.682,2.315,2.315,0,0,1,1.648.682,2.315,2.315,0,0,1,.683,1.648,2.315,2.315,0,0,1-.683,1.648l-5.338,5.338A2.843,2.843,0,0,1-72.8-118.018Zm-3.444-6.415a.855.855,0,0,0-.609.252.855.855,0,0,0-.252.608.855.855,0,0,0,.252.608l3.068,3.068a1.383,1.383,0,0,0,.985.408,1.383,1.383,0,0,0,.985-.408l5.338-5.338a.855.855,0,0,0,.252-.609.855.855,0,0,0-.252-.608.855.855,0,0,0-.609-.252.855.855,0,0,0-.608.252l-4.586,4.586a.735.735,0,0,1-1.039,0l-2.316-2.316A.855.855,0,0,0-76.247-124.433Z" transform="translate(78.577 128.173)"/>
          </g>
          <g id="g5154" transform="translate(4.119 26.4)">
            <path id="path5156" d="M-486.96-95.539a28.962,28.962,0,0,1-4.711-.38,41.928,41.928,0,0,1-11.007-3.772c-4.443-2.029-8.64-3.945-14.569-3.558a.735.735,0,0,1-.781-.685.735.735,0,0,1,.685-.781c6.3-.412,10.659,1.58,15.275,3.688a40.75,40.75,0,0,0,10.635,3.658,29.661,29.661,0,0,0,11.315-.417.735.735,0,0,1,.877.557.735.735,0,0,1-.557.877A32.856,32.856,0,0,1-486.96-95.539Z" transform="translate(518.03 104.77)"/>
          </g>
        </g>
      </g>
    </g>
  </g>
</svg>
