<svg xmlns="http://www.w3.org/2000/svg" xmlns:xlink="http://www.w3.org/1999/xlink" width="102" height="102" viewBox="0 0 102 102">
  <defs>
    <filter id="Rect치ngulo_401378" x="0" y="0" width="102" height="102" filterUnits="userSpaceOnUse">
      <feOffset input="SourceAlpha"/>
      <feGaussianBlur stdDeviation="2" result="blur"/>
      <feFlood flood-opacity="0.251"/>
      <feComposite operator="in" in2="blur"/>
      <feComposite in="SourceGraphic"/>
    </filter>
  </defs>
  <g id="Grupo_1099705" data-name="Grupo 1099705" transform="translate(-1021.781 -1960)">
    <g id="Grupo_1099558" data-name="Grupo 1099558" transform="translate(1027.781 1966)">
      <g transform="matrix(1, 0, 0, 1, -6, -6)" filter="url(#Rect치ngulo_401378)">
        <g id="Rect치ngulo_401378-2" data-name="Rect치ngulo 401378" transform="translate(6 6)" fill="#a1c0f9" stroke="#fff" stroke-width="3">
          <path d="M29,0H61A29,29,0,0,1,90,29V61A29,29,0,0,1,61,90H0a0,0,0,0,1,0,0V29A29,29,0,0,1,29,0Z" stroke="none"/>
          <path d="M29,1.5H61A27.5,27.5,0,0,1,88.5,29V61A27.5,27.5,0,0,1,61,88.5H1.5a0,0,0,0,1,0,0V29A27.5,27.5,0,0,1,29,1.5Z" fill="none"/>
        </g>
      </g>
    </g>
    <g id="advertencia" transform="translate(1047.832 1982.477)">
      <path id="Trazado_873909" data-name="Trazado 873909" d="M245.276,34.6a3.877,3.877,0,0,1-3.783,2.99H215.742a3.883,3.883,0,0,1-3.362-5.825l12.876-22.3a3.872,3.872,0,0,1,4.378-1.809,3.826,3.826,0,0,1,2.347,1.809l12.876,22.3A3.828,3.828,0,0,1,245.276,34.6Zm0,0" transform="translate(-187.578 -6.661)" fill="#d63030"/>
      <path id="Trazado_873910" data-name="Trazado 873910" d="M284.376,35.625H259.9A3.883,3.883,0,0,1,256.54,29.8L268.733,8.68a3.826,3.826,0,0,1,2.347,1.809l12.876,22.3A3.828,3.828,0,0,1,284.376,35.625Zm0,0" transform="translate(-226.678 -7.685)" fill="#f44545"/>
      <path id="Trazado_873911" data-name="Trazado 873911" d="M334.953,55.973a3,3,0,0,0-2.995,3.219l.5,6.977a2.486,2.486,0,0,0,4.959.009l.528-6.975A3,3,0,0,0,334.953,55.973Zm0,0" transform="translate(-293.913 -49.559)" fill="#af2727"/>
      <path id="Trazado_873912" data-name="Trazado 873912" d="M338.476,194.645a2.926,2.926,0,1,1-2.926-2.926A2.926,2.926,0,0,1,338.476,194.645Zm0,0" transform="translate(-294.511 -169.75)" fill="#af2727"/>
      <path id="Trazado_873913" data-name="Trazado 873913" d="M39.382,383.544a2.729,2.729,0,0,1-2.729,2.729H9.51a2.728,2.728,0,0,1-2.729-2.729,12.47,12.47,0,0,1,12.469-12.47h7.662A12.47,12.47,0,0,1,39.382,383.544Zm0,0" transform="translate(-6.004 -328.554)" fill="#d2d2d7"/>
      <path id="Trazado_873914" data-name="Trazado 873914" d="M58.993,383.544a2.729,2.729,0,0,1-2.729,2.729H31.658a2.728,2.728,0,0,1-2.729-2.729A12.47,12.47,0,0,1,41.4,371.074h5.124A12.47,12.47,0,0,1,58.993,383.544Zm0,0" transform="translate(-25.615 -328.554)" fill="#ebebf0"/>
      <path id="Trazado_873915" data-name="Trazado 873915" d="M128.627,314.056l-3.034,5.149-3.034-5.149v-7.364h6.068Zm0,0" transform="translate(-108.515 -271.549)" fill="#f2bb88"/>
      <path id="Trazado_873916" data-name="Trazado 873916" d="M126.61,458.438h-3.05l-1.607,5.188h6.316Zm0,0" transform="translate(-107.979 -405.907)" fill="#6990d7"/>
      <path id="Trazado_873917" data-name="Trazado 873917" d="M132.118,424.987h-3.2a.8.8,0,0,1-.8-.8v-2.883a.8.8,0,0,1,.8-.8h3.2a.8.8,0,0,1,.8.8v2.883A.8.8,0,0,1,132.118,424.987Zm0,0" transform="translate(-113.44 -372.327)" fill="#91aee2"/>
      <g id="Grupo_1099845" data-name="Grupo 1099845" transform="translate(4.811 13.332)">
        <path id="Trazado_873918" data-name="Trazado 873918" d="M49.075,237.35A3.545,3.545,0,1,1,45.53,233.8,3.545,3.545,0,0,1,49.075,237.35Zm0,0" transform="translate(-41.984 -220.346)" fill="#f2bb88"/>
        <path id="Trazado_873919" data-name="Trazado 873919" d="M204.009,237.354a3.546,3.546,0,1,1-3.545-3.545A3.546,3.546,0,0,1,204.009,237.354Zm0,0" transform="translate(-179.165 -220.35)" fill="#f2bb88"/>
        <path id="Trazado_873920" data-name="Trazado 873920" d="M85.5,119.395v16.487c0,4.287-5.018,7.891-7.992,8.923a4.6,4.6,0,0,1-1.412.3c-1.166,0-3.516-1.032-5.576-2.7s-3.829-3.973-3.829-6.518V119.395a3.043,3.043,0,0,1,3.043-3.043H82.462A3.042,3.042,0,0,1,85.5,119.395Zm0,0" transform="translate(-63.864 -116.352)" fill="#f2bb88"/>
      </g>
      <path id="Trazado_873921" data-name="Trazado 873921" d="M107.321,119.395v16.487c0,3.71-3.757,6.908-6.7,8.371a2.9,2.9,0,0,1-2.585,0,15.9,15.9,0,0,1-2.875-1.856c-2.06-1.668-3.829-3.973-3.829-6.518V119.395a3.043,3.043,0,0,1,3.043-3.043h9.9A3.043,3.043,0,0,1,107.321,119.395Zm0,0" transform="translate(-80.87 -103.019)" fill="#f2d1a5"/>
      <path id="Trazado_873922" data-name="Trazado 873922" d="M83.279,352l-2.328,2.428a.74.74,0,0,0-.171.735l2.113,6.655a1.231,1.231,0,0,0,1.724.391l4.173-2.7-4.342-7.37A.739.739,0,0,0,83.279,352Zm0,0" transform="translate(-71.494 -311.469)" fill="#aec2e9"/>
      <path id="Trazado_873923" data-name="Trazado 873923" d="M152.633,352l2.328,2.428a.739.739,0,0,1,.171.735l-2.113,6.655a1.231,1.231,0,0,1-1.724.391l-4.173-2.7,4.342-7.37A.739.739,0,0,1,152.633,352Zm0,0" transform="translate(-130.263 -311.469)" fill="#aec2e9"/>
      <path id="Trazado_873924" data-name="Trazado 873924" d="M71.858,101.5v13.376c0,.1-.131.168-.267.148a13.709,13.709,0,0,1-6.657-3.377c-.145-.129-.444-.031-.387.128l.883,2.481c.048.135-.17.239-.337.161-3.624-1.687-6.782-5.586-8.04-7.288-.111-.151-.444-.079-.414.088l.431,2.311c.025.129-.184.218-.34.145-6.806-3.2-7.023-10.58-7.023-10.58v-.957c0-.289.349-.522.78-.522H66.052C69.258,97.609,71.858,99.35,71.858,101.5Zm0,0" transform="translate(-44.011 -86.425)" fill="#f29500"/>
      <path id="Trazado_873925" data-name="Trazado 873925" d="M78.111,101.5v8.2c0,.1-.131.167-.267.147a13.721,13.721,0,0,1-6.657-3.375c-.145-.129-.444-.031-.387.128l.883,2.481c.048.133-.17.238-.337.16-3.624-1.686-6.782-5.586-8.04-7.287-.111-.151-.444-.081-.414.088l.431,2.311c.025.128-.184.217-.34.144a11.961,11.961,0,0,1-6.214-6.878H72.3C75.512,97.609,78.111,99.35,78.111,101.5Zm0,0" transform="translate(-50.265 -86.425)" fill="#ffa90b"/>
      <path id="Trazado_873926" data-name="Trazado 873926" d="M183.216,254.793a1.115,1.115,0,1,0,1.334,1.094A1.116,1.116,0,0,0,183.216,254.793Zm0,0" transform="translate(-161.432 -225.577)"/>
      <path id="Trazado_873927" data-name="Trazado 873927" d="M99.19,254.781a1.115,1.115,0,1,0,1.115,1.116A1.116,1.116,0,0,0,99.19,254.781Zm0,0" transform="translate(-86.836 -225.587)"/>
      <path id="Trazado_873928" data-name="Trazado 873928" d="M86.095,222.991a6.453,6.453,0,0,0-4.3.443.863.863,0,0,0,.46,1.593c.469,0,.447-.292,1.359-.424a6.968,6.968,0,0,1,2.133.078.863.863,0,0,0,.351-1.689Zm0,0" transform="translate(-72.062 -197.287)"/>
      <path id="Trazado_873929" data-name="Trazado 873929" d="M132.78,281.6h-3.089a.863.863,0,1,0,0,1.725h3.089a3.416,3.416,0,0,1,2.356,1.041A.863.863,0,0,0,136.165,283,4.754,4.754,0,0,0,132.78,281.6Zm0,0" transform="translate(-114.066 -249.334)"/>
      <path id="Trazado_873930" data-name="Trazado 873930" d="M149.9,401.177h0Zm0,0" transform="translate(-132.726 -355.207)"/>
      <path id="Trazado_873931" data-name="Trazado 873931" d="M108.282,360.2C107.785,359.358,108.72,360.946,108.282,360.2Zm0,0" transform="translate(-95.741 -318.702)"/>
      <path id="Trazado_873932" data-name="Trazado 873932" d="M147.546,397.175Zm0,0" transform="translate(-130.569 -351.546)"/>
      <path id="Trazado_873933" data-name="Trazado 873933" d="M58.024,24.674,45.149,2.372a4.745,4.745,0,0,0-8.219,0L28.834,16.4V15.115c0-2.661-2.927-4.746-6.663-4.746H6.617a1.513,1.513,0,0,0-1.641,1.384A12.776,12.776,0,0,0,6,17.12a13.7,13.7,0,0,0,.719,1.516V26.17a4.414,4.414,0,0,0,.221,8.317,11.185,11.185,0,0,0,4.11,5.668L8.869,42.425A13.366,13.366,0,0,0,0,55a3.6,3.6,0,0,0,3.594,3.594H30.762A3.6,3.6,0,0,0,34.356,55a13.367,13.367,0,0,0-8.871-12.573l-2.337-2.439a11.006,11.006,0,0,0,3.87-5.389,4.345,4.345,0,0,0,3.188-2.8h23.71a4.746,4.746,0,0,0,4.109-7.119ZM6.715,32.462a2.684,2.684,0,0,1,0-4.346ZM10.225,43.5a.041.041,0,0,1,.014-.013c.009-.014,2.139-2.234,2.152-2.246,1.409,2.394-2.314-3.928,3.788,6.43a.943.943,0,0,0-.059.169c-3.678,2.382-3.408,2.24-3.577,2.24-.293,0-.283-.192-.3-.206-.113-.354-.551-1.734-2.024-6.372Zm8.487,8.169a.159.159,0,0,1-.152.13H15.836c-.161-.015-.195-.056-.195-.155v-1.44l1.537-.995,1.536.995C18.713,51.491,18.718,51.629,18.712,51.673Zm-1.735-6.044L15.134,42.5a4.668,4.668,0,0,0,4.1-.149c-.06.337-1.089,1.937-2.053,3.617ZM13.436,56.866H8.42v-4.5a.862.862,0,1,0-1.725,0v4.5h-3.1A1.871,1.871,0,0,1,1.725,55,11.636,11.636,0,0,1,8.684,44.354c2.1,6.592,1.978,6.278,2.054,6.417a2.04,2.04,0,0,0,1.805,1.037,2.322,2.322,0,0,0,1.373-.483A2.055,2.055,0,0,0,14.6,53.1Zm1.806,0,1.034-3.339h1.869l1.068,3.339ZM25.672,44.354A11.636,11.636,0,0,1,32.631,55a1.871,1.871,0,0,1-1.869,1.869h-3.1v-4.5a.863.863,0,1,0-1.725,0v4.5H21.024L19.8,53.055a2.062,2.062,0,0,0,.635-1.73,2.321,2.321,0,0,0,1.373.483,2.042,2.042,0,0,0,1.806-1.037.821.821,0,0,0,.064-.153Zm-1.556-.864s.008.007.014.014h0c-.114.357-1.691,5.328-2.047,6.449v0a.02.02,0,0,0,0,.007h0l0,.006s0,0,0,.006a.027.027,0,0,1,0,.008.4.4,0,0,1-.47.04l-.057-.037.038.024-3.349-2.169a.927.927,0,0,0-.059-.169l3.789-6.43C21.976,41.256,24.1,43.475,24.116,43.49ZM21.6,50.02l-.008,0Zm3.608-15.4c-1.371,3.7-6.528,6.551-8.2,6.565h-.01c-1.649,0-6.784-2.824-8.193-6.511-.476-1.241-.359-.588-.359-13.6a12.64,12.64,0,0,0,4.049,2.992,1.085,1.085,0,0,0,1.568-.841,22.108,22.108,0,0,0,6.79,5.583,1.075,1.075,0,0,0,1.567-.989h0a2.2,2.2,0,0,0-.155-.53,14.482,14.482,0,0,0,3.285,1.686C25.543,32.816,25.657,33.4,25.205,34.617Zm1.9-6.983a11.683,11.683,0,0,1-3.591-1.581c-1.8-1.141-1.867-1.721-2.639-1.721a1.024,1.024,0,0,0-1.026,1.34l.27.757a26.844,26.844,0,0,1-6.253-6.2,1.086,1.086,0,0,0-1.954.759l.169.9a10.7,10.7,0,0,1-3.646-3.7A13.022,13.022,0,0,1,6.7,12.694v-.6H22.17c2.676,0,4.938,1.384,4.938,3.021Zm.16,5.056v-3.26a1.26,1.26,0,0,0,1.249-.23A2.687,2.687,0,0,1,27.268,32.69Zm29.262-4.133a2.988,2.988,0,0,1-2.615,1.511H30.469a4.325,4.325,0,0,0-1.635-3.209V19.846l9.59-16.611a3.021,3.021,0,0,1,5.232,0l12.876,22.3A2.988,2.988,0,0,1,56.531,28.557Zm0,0"/>
      <path id="Trazado_873934" data-name="Trazado 873934" d="M188.018,436.233Zm0,0" transform="translate(-166.471 -386.245)"/>
      <path id="Trazado_873935" data-name="Trazado 873935" d="M328.274,62.674a3.363,3.363,0,0,0,3.339-3.1l.433-5.732a.862.862,0,1,0-1.72-.13l-.434,5.732a1.624,1.624,0,0,1-3.238-.006c-.531-7.393-.508-6.989-.508-7.135a2.141,2.141,0,0,1,3.835-1.3.862.862,0,0,0,1.364-1.055,3.865,3.865,0,0,0-6.914,2.641l.5,6.977A3.361,3.361,0,0,0,328.274,62.674Zm0,0" transform="translate(-287.247 -42.894)"/>
      <path id="Trazado_873936" data-name="Trazado 873936" d="M328.886,184.191a3.788,3.788,0,1,0,3.788,3.788A3.792,3.792,0,0,0,328.886,184.191Zm0,5.852a2.063,2.063,0,1,1,2.063-2.063A2.065,2.065,0,0,1,328.886,190.043Zm0,0" transform="translate(-287.846 -163.086)"/>
    </g>
  </g>
</svg>
