<svg xmlns="http://www.w3.org/2000/svg" xmlns:xlink="http://www.w3.org/1999/xlink" width="102" height="102" viewBox="0 0 102 102">
  <defs>
    <filter id="Rectángulo_401378" x="0" y="0" width="102" height="102" filterUnits="userSpaceOnUse">
      <feOffset input="SourceAlpha"/>
      <feGaussianBlur stdDeviation="2" result="blur"/>
      <feFlood flood-opacity="0.251"/>
      <feComposite operator="in" in2="blur"/>
      <feComposite in="SourceGraphic"/>
    </filter>
  </defs>
  <g id="Grupo_1099853" data-name="Grupo 1099853" transform="translate(520.102 7209)">
    <g id="Grupo_1099707" data-name="Grupo 1099707" transform="translate(-1541.883 -9169)">
      <g id="Grupo_1099558" data-name="Grupo 1099558" transform="translate(1027.781 1966)">
        <g transform="matrix(1, 0, 0, 1, -6, -6)" filter="url(#Rectángulo_401378)">
          <g id="Rectángulo_401378-2" data-name="Rectángulo 401378" transform="translate(6 6)" fill="#a1c0f9" stroke="#fff" stroke-width="3">
            <path d="M29,0H61A29,29,0,0,1,90,29V61A29,29,0,0,1,61,90H0a0,0,0,0,1,0,0V29A29,29,0,0,1,29,0Z" stroke="none"/>
            <path d="M29,1.5H61A27.5,27.5,0,0,1,88.5,29V61A27.5,27.5,0,0,1,61,88.5H1.5a0,0,0,0,1,0,0V29A27.5,27.5,0,0,1,29,1.5Z" fill="none"/>
          </g>
        </g>
      </g>
    </g>
    <g id="ortopedia" transform="translate(-493.254 -7182.152)">
      <g id="Grupo_1099850" data-name="Grupo 1099850" transform="translate(0.708 0.707)">
        <g id="Grupo_1099848" data-name="Grupo 1099848">
          <path id="Trazado_873965" data-name="Trazado 873965" d="M54.012,23.415A10.324,10.324,0,0,1,53.1,27.65l0,10.626q.02.484.02.969a23.379,23.379,0,0,1-.475,4.689,9.277,9.277,0,0,0,.253,4.682l.377,1.182a13.756,13.756,0,0,1,.868,3.831.473.473,0,0,1-.472.49l-1.553.27h-5.08a.472.472,0,0,1-.472-.472V50.138A28.383,28.383,0,0,0,45.8,43.3l-.685-2.82-.443-1.449q-.164,1.043-.4,2.076l-.7,3.057c0,.014-.007.028-.01.043a15.317,15.317,0,0,0-.133,6.065l.632,3.568a.472.472,0,0,1-.464.554H18.3a.472.472,0,0,1-.464-.554l.632-3.568a15.317,15.317,0,0,0-.133-6.065c0-.015-.007-.029-.01-.043l-.7-3.057q-.238-1.036-.4-2.084l-.13.927-1,3.35a28.383,28.383,0,0,0-.774,6.842v3.779a.472.472,0,0,1-.472.472H7.983a.473.473,0,0,1-.472-.49,15.422,15.422,0,0,1,.718-4.1l.377-1.182a9.268,9.268,0,0,0,.441-2.825,9.268,9.268,0,0,0-.188-1.858A23.386,23.386,0,0,1,8.4,38.276V29.433l.545-.46L8.4,27.643h0a10.342,10.342,0,0,1-.9-4.229V20.741a5.7,5.7,0,0,1,4.319-5.531l10.172-2.539A4.1,4.1,0,0,0,25.126,9.16l.145-1.243A.472.472,0,0,1,25.74,7.5h3.77l1.555.782L32.38,7.5h3.77a.472.472,0,0,1,.469.417l.145,1.243A4.1,4.1,0,0,0,39.9,12.672L49.23,15l.792.322a5.292,5.292,0,0,1,3.99,5.418Z" transform="translate(-7.5 -7.5)" fill="#e59683"/>
          <path id="Trazado_873966" data-name="Trazado 873966" d="M454.263,95.243a10.324,10.324,0,0,1-.908,4.235l-.565,1.019.566.764,0,8.843q.02.484.02.969a23.378,23.378,0,0,1-.475,4.689,9.277,9.277,0,0,0,.253,4.682l.377,1.182a15.466,15.466,0,0,1,.719,4.1.473.473,0,0,1-.473.49H452a15.422,15.422,0,0,0-.729-4.591l-.377-1.182a9.277,9.277,0,0,1-.253-4.682,23.378,23.378,0,0,0,.475-4.689q0-.485-.02-.969l0-10.357a1.337,1.337,0,0,1,.107-.516,10.325,10.325,0,0,0,.8-3.988V91.815a5.7,5.7,0,0,0-2.969-5l.914.228a5.7,5.7,0,0,1,4.319,5.531Z" transform="translate(-407.374 -79.328)" fill="#d8816c"/>
        </g>
        <rect id="Rectángulo_401534" data-name="Rectángulo 401534" width="2.871" height="3.392" transform="translate(22.009)" fill="#f5f8f9"/>
        <path id="Trazado_873967" data-name="Trazado 873967" d="M225.154,33.514h-4.311a1.29,1.29,0,0,0-1.3,1.205,1.267,1.267,0,0,0,1.265,1.328h.339a.189.189,0,0,1,.184.148l.537,2.428,1.113.7,1.113-.7.537-2.428a.189.189,0,0,1,.184-.148h.3a1.29,1.29,0,0,0,1.3-1.205A1.267,1.267,0,0,0,225.154,33.514Z" transform="translate(-199.536 -31.06)" fill="#e8edf2"/>
        <path id="Trazado_873968" data-name="Trazado 873968" d="M225.154,87.666h-4.311a1.29,1.29,0,0,0-1.3,1.205,1.267,1.267,0,0,0,1.265,1.328h.339a.189.189,0,0,1,.184.148l.537,2.428.806.872,1.42-.872.537-2.428a.189.189,0,0,1,.184-.148h.3a1.29,1.29,0,0,0,1.3-1.205A1.267,1.267,0,0,0,225.154,87.666Z" transform="translate(-199.536 -80.103)" fill="#f5f8f9"/>
        <path id="Trazado_873969" data-name="Trazado 873969" d="M225.154,141.819h-4.311a1.29,1.29,0,0,0-1.3,1.205,1.267,1.267,0,0,0,1.265,1.328h.339a.189.189,0,0,1,.184.148l.537,2.428.993.848,1.232-.848.537-2.428a.189.189,0,0,1,.184-.148h.3a1.29,1.29,0,0,0,1.3-1.205A1.266,1.266,0,0,0,225.154,141.819Z" transform="translate(-199.536 -129.147)" fill="#e8edf2"/>
        <path id="Trazado_873970" data-name="Trazado 873970" d="M225.154,195.972h-4.311a1.29,1.29,0,0,0-1.3,1.205,1.267,1.267,0,0,0,1.265,1.328h.339a.189.189,0,0,1,.184.148l.537,2.428.993,1.1,1.232-1.1.537-2.428a.189.189,0,0,1,.184-.148h.3a1.29,1.29,0,0,0,1.3-1.205A1.266,1.266,0,0,0,225.154,195.972Z" transform="translate(-199.536 -178.191)" fill="#f5f8f9"/>
        <path id="Trazado_873971" data-name="Trazado 873971" d="M225.154,250.125h-4.311a1.29,1.29,0,0,0-1.3,1.205,1.267,1.267,0,0,0,1.265,1.328h.339a.189.189,0,0,1,.184.148l.537,2.428h2.225l.537-2.428a.189.189,0,0,1,.184-.148h.3a1.29,1.29,0,0,0,1.3-1.205A1.266,1.266,0,0,0,225.154,250.125Z" transform="translate(-199.536 -227.235)" fill="#e8edf2"/>
        <g id="Grupo_1099849" data-name="Grupo 1099849" transform="translate(13.834 27.668)">
          <path id="Trazado_873972" data-name="Trazado 873972" d="M154.128,310.37a9.6,9.6,0,0,0,.5,3.06,10.111,10.111,0,0,0,9.058,6.037,8.816,8.816,0,0,0,9.171-9.1c0-4.238-2.683-7.143-6.055-9.114a9.62,9.62,0,0,0-12.671,9.114Z" transform="translate(-154.128 -300.759)" fill="#8db9ff"/>
          <path id="Trazado_873973" data-name="Trazado 873973" d="M178.12,315.137A9.613,9.613,0,0,1,159.4,318.2a9.617,9.617,0,0,0,12.174-12.174A9.615,9.615,0,0,1,178.12,315.137Z" transform="translate(-158.898 -305.526)" fill="#70abf2"/>
          <path id="Trazado_873974" data-name="Trazado 873974" d="M201.366,351.208h3.008a.2.2,0,0,0,.2-.2V348a.2.2,0,0,1,.2-.2h3.107a.2.2,0,0,1,.2.2V351a.2.2,0,0,0,.2.2h.585l2.245.153a.2.2,0,0,1,.2.2l.065,2.812a.2.2,0,0,1-.2.2l-3.047-.01a.2.2,0,0,0-.2.2l.1,2.885a.2.2,0,0,1-.2.2l-2.879.124a.2.2,0,0,1-.2-.2l-.178-2.273v-.585a.2.2,0,0,0-.2-.2h-3.008a.2.2,0,0,1-.2-.2v-3.107A.2.2,0,0,1,201.366,351.208Z" transform="translate(-196.725 -343.355)" fill="#f5f8f9"/>
          <path id="Trazado_873975" data-name="Trazado 873975" d="M244.3,384.2v3.107a.2.2,0,0,1-.2.2h-3.008a.2.2,0,0,0-.2.2v3.008a.2.2,0,0,1-.2.2h-3.107a.2.2,0,0,1-.2-.2V388.3a9.649,9.649,0,0,0,4.3-4.3H244.1A.2.2,0,0,1,244.3,384.2Z" transform="translate(-229.516 -376.146)" fill="#e8edf2"/>
        </g>
      </g>
      <g id="Grupo_1099852" data-name="Grupo 1099852" transform="translate(0 -0.001)">
        <path id="Trazado_873976" data-name="Trazado 873976" d="M103.645,7.779a.708.708,0,0,1-.171-1.394l4.78-1.193a3.4,3.4,0,0,0,2.6-2.908l.194-1.66a.708.708,0,0,1,1.406.165l-.194,1.66a4.815,4.815,0,0,1-3.676,4.119l-4.77,1.19A.709.709,0,0,1,103.645,7.779Z" transform="translate(-93.227 0.001)"/>
        <path id="Trazado_873977" data-name="Trazado 873977" d="M2.758,92.3a.706.706,0,0,1-.568-.285A11.114,11.114,0,0,1,0,85.415V82.741a6.4,6.4,0,0,1,4.855-6.217l2.182-.544a.708.708,0,1,1,.343,1.373L5.2,77.9a4.986,4.986,0,0,0-3.783,4.844v2.674a9.69,9.69,0,0,0,1.91,5.756A.708.708,0,0,1,2.758,92.3Z" transform="translate(0 -68.792)"/>
        <path id="Línea_566" data-name="Línea 566" d="M-6.792,2.469A.708.708,0,0,1-7.5,1.761V-6.792A.708.708,0,0,1-6.792-7.5a.708.708,0,0,1,.708.708V1.761A.708.708,0,0,1-6.792,2.469Z" transform="translate(8.405 27.806)"/>
        <path id="Trazado_873978" data-name="Trazado 873978" d="M.708,357.033h0a.708.708,0,0,1-.7-.712,16.07,16.07,0,0,1,.763-4.8l.377-1.182a8.588,8.588,0,0,0,.234-4.326,24.179,24.179,0,0,1-.485-4.4.708.708,0,1,1,1.415-.025,22.761,22.761,0,0,0,.457,4.144,10.006,10.006,0,0,1-.272,5.04l-.377,1.182a14.657,14.657,0,0,0-.7,4.38A.708.708,0,0,1,.708,357.033Z" transform="translate(0 -308.729)"/>
        <path id="Trazado_873979" data-name="Trazado 873979" d="M83.556,348.793a.708.708,0,0,1-.708-.708v-4.251a31.446,31.446,0,0,1,.855-7.277l1.033-4.227a.708.708,0,1,1,1.375.336l-1.032,4.223a30.021,30.021,0,0,0-.815,6.945v4.251A.708.708,0,0,1,83.556,348.793Z" transform="translate(-75.032 -300.488)"/>
        <path id="Trazado_873980" data-name="Trazado 873980" d="M100.633,231.3a.708.708,0,0,1-.7-.831l.73-4.122a14.519,14.519,0,0,0-.126-5.785l-.71-3.1a31.452,31.452,0,0,1-.794-7.006v-7.692a.708.708,0,1,1,1.415,0v7.691a30.033,30.033,0,0,0,.758,6.69l.7,3.057a15.981,15.981,0,0,1,.15,6.39l-.73,4.122A.708.708,0,0,1,100.633,231.3Z" transform="translate(-89.691 -182.997)"/>
        <path id="Trazado_873981" data-name="Trazado 873981" d="M316.934,7.779a.709.709,0,0,1-.172-.021l-4.778-1.193a4.812,4.812,0,0,1-3.666-4.117L308.124.789A.708.708,0,0,1,309.53.625l.194,1.66a3.4,3.4,0,0,0,2.593,2.906L317.1,6.385a.708.708,0,0,1-.171,1.394Z" transform="translate(-279.05 0.001)"/>
        <path id="Trazado_873982" data-name="Trazado 873982" d="M433.174,92.283a.708.708,0,0,1-.567-1.131,9.69,9.69,0,0,0,1.91-5.756V82.723a4.986,4.986,0,0,0-3.783-4.844l-2.19-.546a.708.708,0,1,1,.343-1.373l2.19.546a6.4,6.4,0,0,1,4.855,6.217V85.4a11.114,11.114,0,0,1-2.19,6.6A.707.707,0,0,1,433.174,92.283Z" transform="translate(-387.628 -68.774)"/>
        <g id="Grupo_1099851" data-name="Grupo 1099851" transform="translate(13.699 14.252)">
          <path id="Trazado_873983" data-name="Trazado 873983" d="M145.905,164.222a.708.708,0,0,1-.38-1.305,6.2,6.2,0,0,0,2.9-5.265v-5.887a.708.708,0,0,1,1.415,0v5.887a7.612,7.612,0,0,1-3.553,6.46A.7.7,0,0,1,145.905,164.222Z" transform="translate(-145.197 -151.057)"/>
          <path id="Trazado_873984" data-name="Trazado 873984" d="M321.554,164.222a.7.7,0,0,1-.378-.11,7.612,7.612,0,0,1-3.553-6.46v-5.887a.708.708,0,0,1,1.415,0v5.887a6.2,6.2,0,0,0,2.9,5.265.708.708,0,0,1-.38,1.305Z" transform="translate(-301.355 -151.057)"/>
        </g>
        <path id="Trazado_873985" data-name="Trazado 873985" d="M482.859,243.231a.708.708,0,0,1-.707-.7,14.671,14.671,0,0,0-.7-4.38l-.378-1.181a10,10,0,0,1-.272-5.04,22.693,22.693,0,0,0,.441-5.486v-10.5a.708.708,0,1,1,1.415,0v10.47a24.018,24.018,0,0,1-.469,5.8,8.584,8.584,0,0,0,.233,4.326l.378,1.182a16.085,16.085,0,0,1,.763,4.8.708.708,0,0,1-.7.712Z" transform="translate(-435.262 -194.927)"/>
        <path id="Trazado_873986" data-name="Trazado 873986" d="M396.928,348.793a.708.708,0,0,1-.708-.708v-4.251a30.027,30.027,0,0,0-.816-6.949l-1.031-4.219a.708.708,0,1,1,1.375-.336l1.032,4.223a31.453,31.453,0,0,1,.856,7.281v4.251A.708.708,0,0,1,396.928,348.793Z" transform="translate(-357.147 -300.488)"/>
        <path id="Trazado_873987" data-name="Trazado 873987" d="M379.906,231.3a.708.708,0,0,1-.7-.584l-.73-4.122a15.925,15.925,0,0,1,.14-6.345l.711-3.1a30.033,30.033,0,0,0,.758-6.69v-7.691a.708.708,0,1,1,1.415,0v7.691a31.45,31.45,0,0,1-.794,7.006l-.7,3.057a14.57,14.57,0,0,0-.136,5.826l.73,4.122a.708.708,0,0,1-.7.831Z" transform="translate(-342.543 -182.997)"/>
        <path id="Trazado_873988" data-name="Trazado 873988" d="M217.333,86.547a.708.708,0,0,1-.692-.861l.538-2.432a.708.708,0,0,1,.691-.555h.49a.559.559,0,0,0,0-1.118h-4.346a.559.559,0,1,0,0,1.118h.49a.708.708,0,0,1,.691.555l.537,2.428a.708.708,0,0,1-1.382.306l-.415-1.875a1.974,1.974,0,0,1,.078-3.947h4.346a1.974,1.974,0,0,1,.078,3.947l-.416,1.879A.708.708,0,0,1,217.333,86.547Z" transform="translate(-192.035 -72.603)"/>
        <path id="Trazado_873989" data-name="Trazado 873989" d="M215.039,140.679a.708.708,0,0,1-.69-.555l-.411-1.858a1.974,1.974,0,0,1,.078-3.947h4.346a1.974,1.974,0,0,1,.078,3.947l-.409,1.846a.708.708,0,1,1-1.382-.306l.531-2.4a.708.708,0,0,1,.691-.555h.49a.559.559,0,0,0,0-1.118h-4.346a.559.559,0,0,0,0,1.118h.49a.708.708,0,0,1,.691.555l.534,2.411a.708.708,0,0,1-.692.861Z" transform="translate(-192.036 -121.647)"/>
        <path id="Trazado_873990" data-name="Trazado 873990" d="M217.335,194.843a.708.708,0,0,1-.692-.861l.536-2.422a.708.708,0,0,1,.691-.555h.49a.559.559,0,1,0,0-1.118h-4.346a.559.559,0,1,0,0,1.118h.49a.708.708,0,0,1,.691.555l.53,2.395a.708.708,0,0,1-1.382.306l-.408-1.842a1.974,1.974,0,0,1,.078-3.947h4.346a1.974,1.974,0,0,1,.078,3.947l-.414,1.869A.708.708,0,0,1,217.335,194.843Z" transform="translate(-192.035 -170.691)"/>
        <path id="Trazado_873991" data-name="Trazado 873991" d="M214.974,248.7a.708.708,0,0,1-.69-.555l-.347-1.57a1.974,1.974,0,0,1,.078-3.947h4.346a1.974,1.974,0,0,1,.078,3.947l-.34,1.538a.708.708,0,1,1-1.382-.306l.463-2.091a.708.708,0,0,1,.691-.555h.49a.559.559,0,0,0,0-1.118h-4.346a.559.559,0,1,0,0,1.118h.49a.708.708,0,0,1,.691.555l.47,2.123a.708.708,0,0,1-.692.861Z" transform="translate(-192.035 -219.734)"/>
        <path id="Trazado_873992" data-name="Trazado 873992" d="M217.333,32.394a.708.708,0,0,1-.692-.861l.538-2.432a.708.708,0,0,1,.691-.555h.49a.559.559,0,0,0,0-1.118h-4.346a.559.559,0,1,0,0,1.118h.49a.708.708,0,0,1,.691.555l.537,2.428a.708.708,0,1,1-1.382.306l-.415-1.875a1.974,1.974,0,0,1,.078-3.947h4.346a1.974,1.974,0,0,1,.078,3.947l-.416,1.879A.708.708,0,0,1,217.333,32.394Z" transform="translate(-192.035 -23.559)"/>
        <path id="Línea_567" data-name="Línea 567" d="M-6.792-3.972A.708.708,0,0,1-7.5-4.679V-6.792A.708.708,0,0,1-6.792-7.5a.708.708,0,0,1,.708.708v2.113A.708.708,0,0,1-6.792-3.972Z" transform="translate(32.38 7.5)"/>
        <path id="Línea_568" data-name="Línea 568" d="M-6.792-3.878A.708.708,0,0,1-7.5-4.586V-6.792A.708.708,0,0,1-6.792-7.5a.708.708,0,0,1,.708.708v2.207A.708.708,0,0,1-6.792-3.878Z" transform="translate(29.509 7.5)"/>
        <path id="Trazado_873993" data-name="Trazado 873993" d="M156.949,313.9a10.319,10.319,0,1,1,4.814-19.447.708.708,0,1,1-.661,1.251,8.921,8.921,0,1,0,2.422,1.876.708.708,0,0,1,1.044-.955,10.317,10.317,0,0,1-7.619,17.276Z" transform="translate(-132.796 -265.592)"/>
        <path id="Trazado_873994" data-name="Trazado 873994" d="M197.788,340.293H201.3a.708.708,0,0,1,.708.708v2.708h2.708a.708.708,0,0,1,.708.708v3.515a.708.708,0,0,1-.708.708H202.01v2.708a.708.708,0,0,1-.708.708h-3.515a.708.708,0,0,1-.708-.708v-2.708h-2.708a.708.708,0,0,1-.708-.708v-3.515a.708.708,0,0,1,.708-.708h2.708V341A.708.708,0,0,1,197.788,340.293Zm2.807,1.415h-2.1v2.708a.708.708,0,0,1-.708.708h-2.708v2.1h2.708a.708.708,0,0,1,.708.708v2.708h2.1v-2.708a.708.708,0,0,1,.708-.708h2.708v-2.1H201.3a.708.708,0,0,1-.708-.708Z" transform="translate(-175.393 -308.188)"/>
      </g>
    </g>
  </g>
</svg>
