<svg xmlns="http://www.w3.org/2000/svg" width="76" height="76" viewBox="0 0 76 76">
  <g id="Grupo_1099784" data-name="Grupo 1099784" transform="translate(-285.051 -1447)">
    <circle id="Elipse_11634" data-name="Elipse 11634" cx="38" cy="38" r="38" transform="translate(285.051 1447)" fill="#fff"/>
    <g id="factores-de-riesgo" transform="translate(296.051 1425.703)">
      <g id="Grupo_1099776" data-name="Grupo 1099776" transform="translate(0.802 37.099)">
        <g id="Grupo_1099775" data-name="Grupo 1099775">
          <g id="Grupo_1099772" data-name="Grupo 1099772" transform="translate(25.213)">
            <path id="Trazado_873849" data-name="Trazado 873849" d="M255,45.079,243.6,64.825a2.566,2.566,0,0,0,2.222,3.849h22.8a2.566,2.566,0,0,0,2.222-3.849l-11.4-19.746A2.566,2.566,0,0,0,255,45.079Z" transform="translate(-243.251 -43.797)" fill="#fedf30"/>
            <path id="Trazado_873850" data-name="Trazado 873850" d="M270.854,64.83l-11.4-19.746a2.565,2.565,0,0,0-4.381-.1L264.437,61.2a2.566,2.566,0,0,1-2.222,3.849H243.5a2.565,2.565,0,0,0,2.335,3.628h22.8A2.566,2.566,0,0,0,270.854,64.83Z" transform="translate(-243.262 -43.801)" fill="#fed402"/>
          </g>
          <g id="Grupo_1099774" data-name="Grupo 1099774" transform="translate(0 4.74)">
            <path id="Trazado_873851" data-name="Trazado 873851" d="M36.4,269.965V252.737a5.314,5.314,0,0,0-5.314-5.314H12.814A5.314,5.314,0,0,0,7.5,252.737v17.228a1.069,1.069,0,0,0,1.069,1.069H35.328A1.069,1.069,0,0,0,36.4,269.965Z" transform="translate(-7.5 -230.386)" fill="#c4e2ff"/>
            <path id="Trazado_873852" data-name="Trazado 873852" d="M32.119,248.374v18.163a1.069,1.069,0,0,1-1.069,1.069H7.5v3.208a1.069,1.069,0,0,0,1.069,1.069H35.328a1.069,1.069,0,0,0,1.069-1.069V253.586A5.316,5.316,0,0,0,32.119,248.374Z" transform="translate(-7.5 -231.235)" fill="#b3dafe"/>
            <circle id="Elipse_11633" data-name="Elipse 11633" cx="8.519" cy="8.519" r="8.519" transform="translate(5.842)" fill="#d78878"/>
            <path id="Trazado_873853" data-name="Trazado 873853" d="M94.914,89.4a8.515,8.515,0,0,1-7.31,14.624A8.518,8.518,0,1,0,94.914,89.4Z" transform="translate(-79.037 -89.262)" fill="#c96e59"/>
            <g id="Grupo_1099773" data-name="Grupo 1099773" transform="translate(10.473 17.037)">
              <path id="Trazado_873854" data-name="Trazado 873854" d="M113.338,313.285l-2.325-18.4-.215-.152h-2.717l-.215.152-2.441,18.4Z" transform="translate(-105.426 -289.673)" fill="#0593fc"/>
              <path id="Trazado_873855" data-name="Trazado 873855" d="M105.993,428.2l-.567,4.278h7.912L112.8,428.2Z" transform="translate(-105.426 -408.87)" fill="#0182fc"/>
              <path id="Trazado_873856" data-name="Trazado 873856" d="M110.584,247.423l1.889,5.211h3.146l1.813-5.2Z" transform="translate(-110.032 -247.423)" fill="#0182fc"/>
            </g>
          </g>
        </g>
      </g>
      <g id="Grupo_1099783" data-name="Grupo 1099783" transform="translate(0 36.297)">
        <g id="Grupo_1099780" data-name="Grupo 1099780" transform="translate(32.869 28.367)">
          <g id="Grupo_1099777" data-name="Grupo 1099777" transform="translate(0)">
            <path id="Trazado_873857" data-name="Trazado 873857" d="M310.031,306.439a.8.8,0,0,1-.552-.22l-1.891-1.793a.8.8,0,0,1,1.1-1.164l1.253,1.189,2.049-2.6a.8.8,0,1,1,1.26.993l-2.593,3.288a.8.8,0,0,1-.572.3Z" transform="translate(-307.338 -301.547)"/>
            <path id="Línea_566" data-name="Línea 566" d="M4.055-5.9H-6.7a.8.8,0,0,1-.8-.8.8.8,0,0,1,.8-.8H4.055a.8.8,0,0,1,.8.8A.8.8,0,0,1,4.055-5.9Z" transform="translate(16.102 9.144)"/>
          </g>
          <g id="Grupo_1099778" data-name="Grupo 1099778" transform="translate(0 6.637)">
            <path id="Trazado_873858" data-name="Trazado 873858" d="M310.031,368.5a.8.8,0,0,1-.552-.22l-1.891-1.794a.8.8,0,0,1,1.1-1.164l1.253,1.189,2.049-2.6a.8.8,0,1,1,1.26.993l-2.593,3.288a.8.8,0,0,1-.572.3Z" transform="translate(-307.338 -363.604)"/>
            <path id="Línea_567" data-name="Línea 567" d="M4.055-5.9H-6.7a.8.8,0,0,1-.8-.8.8.8,0,0,1,.8-.8H4.055a.8.8,0,0,1,.8.8A.8.8,0,0,1,4.055-5.9Z" transform="translate(16.102 9.144)"/>
          </g>
          <g id="Grupo_1099779" data-name="Grupo 1099779" transform="translate(0 13.273)">
            <path id="Trazado_873859" data-name="Trazado 873859" d="M310.031,430.553a.8.8,0,0,1-.552-.22l-1.891-1.794a.8.8,0,0,1,1.1-1.164l1.253,1.189,2.049-2.6a.8.8,0,0,1,1.26.993l-2.593,3.288a.8.8,0,0,1-.572.3Z" transform="translate(-307.338 -425.661)"/>
            <path id="Línea_568" data-name="Línea 568" d="M4.055-5.9H-6.7a.8.8,0,0,1-.8-.8.8.8,0,0,1,.8-.8H4.055a.8.8,0,0,1,.8.8A.8.8,0,0,1,4.055-5.9Z" transform="translate(16.102 9.144)"/>
          </g>
        </g>
        <g id="Grupo_1099782" data-name="Grupo 1099782" transform="translate(39.182 7.514)">
          <g id="Grupo_1099781" data-name="Grupo 1099781">
            <path id="Línea_569" data-name="Línea 569" d="M-6.7.426a.8.8,0,0,1-.8-.8V-6.7a.8.8,0,0,1,.8-.8.8.8,0,0,1,.8.8V-.377A.8.8,0,0,1-6.7.426Z" transform="translate(7.5 7.5)"/>
            <path id="Línea_570" data-name="Línea 570" d="M-6.7-5.014a.8.8,0,0,1-.8-.8V-6.7a.8.8,0,0,1,.8-.8.8.8,0,0,1,.8.8v.882A.8.8,0,0,1-6.7-5.014Z" transform="translate(7.5 18.41)"/>
          </g>
        </g>
        <path id="Trazado_873860" data-name="Trazado 873860" d="M106.64,308.657H98.728a.8.8,0,0,1-.8-.908l2.441-18.4a.8.8,0,0,1,.8-.7h3.146a.8.8,0,0,1,.8.7l.875,6.924a.8.8,0,1,1-1.592.2l-.786-6.222h-1.736l-2.228,16.8h6.087l-.866-6.856a.8.8,0,1,1,1.592-.2l.98,7.758a.8.8,0,0,1-.8.9Z" transform="translate(-87.453 -261.665)"/>
        <path id="Trazado_873861" data-name="Trazado 873861" d="M103.886,239.923h0l6.848.014a.8.8,0,0,1,.756,1.066l-1.813,5.2a.8.8,0,0,1-.757.538h-3.146a.8.8,0,0,1-.754-.529L103.132,241a.8.8,0,0,1,.754-1.075Zm5.72,1.616-4.575-.01,1.307,3.6h2.014Z" transform="translate(-92.06 -218.146)"/>
        <path id="Elipse_11634-2" data-name="Elipse 11634" d="M1.821-7.5a9.331,9.331,0,0,1,9.321,9.321,9.331,9.331,0,0,1-9.321,9.321A9.331,9.331,0,0,1-7.5,1.821,9.331,9.331,0,0,1,1.821-7.5Zm0,17.037A7.717,7.717,0,1,0-5.9,1.821,7.725,7.725,0,0,0,1.821,9.537Z" transform="translate(13.342 12.24)"/>
        <path id="Trazado_873862" data-name="Trazado 873862" d="M288.656,62.778H266.487a.8.8,0,1,1,0-1.6h22.169a1.764,1.764,0,0,0,1.527-2.646l-11.4-19.746a1.764,1.764,0,0,0-3.055,0l-4.311,7.468a.8.8,0,1,1-1.389-.8l4.311-7.468a3.368,3.368,0,0,1,5.833,0l11.4,19.746a3.368,3.368,0,0,1-2.917,5.052Z" transform="translate(-237.271 -36.297)"/>
        <path id="Trazado_873863" data-name="Trazado 873863" d="M236.7,160.078a.8.8,0,0,1-.8-.888,3.355,3.355,0,0,1,.435-1.324l5.217-9.036a.8.8,0,0,1,1.389.8l-5.217,9.036a1.76,1.76,0,0,0-.23.694A.8.8,0,0,1,236.7,160.078Z" transform="translate(-210.665 -136.436)"/>
        <path id="Trazado_873864" data-name="Trazado 873864" d="M28.63,265.138H1.872A1.874,1.874,0,0,1,0,263.266V251.508a.8.8,0,0,1,1.6,0v11.758a.268.268,0,0,0,.267.267H28.63a.268.268,0,0,0,.267-.267V246.038a4.517,4.517,0,0,0-4.512-4.512H6.116A4.517,4.517,0,0,0,1.6,246.038v1.727a.8.8,0,0,1-1.6,0v-1.727a6.123,6.123,0,0,1,6.116-6.116H24.385a6.123,6.123,0,0,1,6.116,6.116v17.228A1.874,1.874,0,0,1,28.63,265.138Z" transform="translate(0 -218.145)"/>
      </g>
    </g>
  </g>
</svg>
