<svg xmlns="http://www.w3.org/2000/svg" width="76" height="76" viewBox="0 0 76 76">
  <g id="Grupo_1099787" data-name="Grupo 1099787" transform="translate(-600.051 -1447)">
    <circle id="Elipse_11635" data-name="Elipse 11635" cx="38" cy="38" r="38" transform="translate(600.051 1447)" fill="#fff"/>
    <g id="pensar" transform="translate(615.906 1462.855)">
      <g id="Grupo_1099785" data-name="Grupo 1099785" transform="translate(0.649 0.649)">
        <path id="Trazado_873857" data-name="Trazado 873857" d="M18.889,389.633,12.69,392c-2.666,1.018-5.19,2.336-5.19,5.19v2.318h4.588l7.162-6.156-.362-3.719Zm9.229,4.891-.844,4.983H40.76V397.19c0-2.854-2.522-4.177-5.19-5.19l-6.411-2.434.836,1.723a1.539,1.539,0,0,1-.247,1.9Z" transform="translate(-7.5 -356.516)" fill="#ffee89" fill-rule="evenodd"/>
        <path id="Trazado_873858" data-name="Trazado 873858" d="M168.085,448.6l-2.446.784-2.644,2.491h6.324l.844-4.983Z" transform="translate(-149.544 -408.882)" fill="#7a797f" fill-rule="evenodd"/>
        <path id="Trazado_873859" data-name="Trazado 873859" d="M74.495,315.525l3.708-3.049a1.539,1.539,0,0,0,.247-1.9l-2.063-4.25,3.405-2.8a1.308,1.308,0,0,0-1.661-2.02l-7.063,5.807.577-3.651A1.461,1.461,0,0,0,70.6,302.1l-.943-.276-2.43,5.858.483,4.962L60.543,318.8h8.862l2.644-2.491Z" transform="translate(-55.955 -275.809)" fill="#ffdaaa" fill-rule="evenodd"/>
        <path id="Trazado_873860" data-name="Trazado 873860" d="M109.751,178.637a7.8,7.8,0,0,0,3.591,6.55l1.262-3.043.943.276a1.461,1.461,0,0,1,1.05,1.568l-.577,3.651,7.063-5.807a1.313,1.313,0,0,1,1.577-.063,7.714,7.714,0,0,0,.662-3.131v-5.19h-9.082A3.254,3.254,0,0,1,113,170.2a3.254,3.254,0,0,0-3.244,3.244Z" transform="translate(-100.906 -156.129)" fill="#ffdaaa" fill-rule="evenodd"/>
        <path id="Trazado_873861" data-name="Trazado 873861" d="M67.346,212.894h1.3V207.7h-2.6a1.3,1.3,0,0,0-1.3,1.3v1.3a2.6,2.6,0,0,0,2.6,2.6Zm16.868-5.19v5.19h1.3a2.6,2.6,0,0,0,2.6-2.6V209a1.3,1.3,0,0,0-1.3-1.3Z" transform="translate(-59.799 -190.386)" fill="#ffb680" fill-rule="evenodd"/>
        <path id="Trazado_873862" data-name="Trazado 873862" d="M79.751,59.074h2.6a3.254,3.254,0,0,1,3.244-3.244,3.253,3.253,0,0,0,3.244,3.245h11.677V55.38a10.38,10.38,0,0,0-20.76,0v3.694ZM84.769,73.63l1.168-2.816a7.8,7.8,0,0,1-3.591-6.55h-1.3a2.573,2.573,0,0,1-1.3-.35V76.835l5.139-1.962-.121-1.243Zm13.148-9.365a7.712,7.712,0,0,1-.662,3.131,1.307,1.307,0,0,1,.084,2.083l-3.405,2.8,1.227,2.527,5.352,2.031V63.914a2.573,2.573,0,0,1-1.3.35h-1.3Z" transform="translate(-73.501 -41.756)" fill="#bababe" fill-rule="evenodd"/>
        <path id="Trazado_873863" data-name="Trazado 873863" d="M9.913,432.889A4.455,4.455,0,0,0,7.5,436.765v2.318H9.446v-4.264A4.009,4.009,0,0,1,9.913,432.889Z" transform="translate(-7.5 -396.092)" fill="#ffe200" fill-rule="evenodd"/>
        <path id="Trazado_873864" data-name="Trazado 873864" d="M62.809,482l-2.265,1.946h8.862L71.472,482Z" transform="translate(-55.956 -440.955)" fill="#ffb680" fill-rule="evenodd"/>
        <path id="Trazado_873865" data-name="Trazado 873865" d="M109.751,181.519a7.8,7.8,0,0,0,3.591,6.549l.5-1.2a7.755,7.755,0,0,1-2.142-5.349v-8.161a3.255,3.255,0,0,0-1.946,2.971Z" transform="translate(-100.906 -159.011)" fill="#ffb680" fill-rule="evenodd"/>
        <path id="Trazado_873866" data-name="Trazado 873866" d="M79.751,59.077H81.7V55.383A10.408,10.408,0,0,1,91.1,45.049,10.4,10.4,0,0,0,79.751,55.383v3.694Zm1.946,5.19h-.649a2.573,2.573,0,0,1-1.3-.35V76.838l1.946-.743Z" transform="translate(-73.501 -41.759)" fill="#7a797f" fill-rule="evenodd"/>
        <circle id="Elipse_11636" data-name="Elipse 11636" cx="1.298" cy="1.298" r="1.298" transform="translate(30.947 16.198)" fill="#9ee6fa"/>
        <path id="Trazado_873867" data-name="Trazado 873867" d="M357.378,19.38a2.6,2.6,0,0,0,4.964.953,6.488,6.488,0,1,0-4.964-.953Z" transform="translate(-324.483 -7.5)" fill="#fff" fill-rule="evenodd"/>
        <path id="Trazado_873868" data-name="Trazado 873868" d="M357.379,19.522a2.6,2.6,0,0,0,3.284,2.4c-1.343-.991-1.32-1.991-1.378-3.464a6.036,6.036,0,0,1,1.289-10.8,6.488,6.488,0,0,0-3.195,11.866Z" transform="translate(-324.484 -7.643)" fill="#9ee6fa" fill-rule="evenodd"/>
        <path id="Trazado_873869" data-name="Trazado 873869" d="M251.464,90.511h-1.3v-1.3h1.3Z" transform="translate(-229.176 -82.145)" fill="#fff"/>
      </g>
      <g id="Grupo_1099786" data-name="Grupo 1099786" transform="translate(0 0)">
        <path id="Trazado_873870" data-name="Trazado 873870" d="M158.741,370.3l-.89-.944,2.751-2.592,2.467-.791,3.612-2.97a.931.931,0,0,0,.075-1.111l-2.063-4.25,1.167-.567,2.063,4.25a2.17,2.17,0,0,1-.418,2.68l-3.8,3.127-2.424.777Z" transform="translate(-144.197 -326.188)"/>
        <path id="Trazado_873871" data-name="Trazado 873871" d="M168.957,301.627l-.824-1,7.869-6.47a1.956,1.956,0,0,1,2.485,3.022l-5.267,4.33-.824-1,5.267-4.33a.659.659,0,0,0-.837-1.018Z" transform="translate(-153.589 -268.304)"/>
        <path id="Trazado_873872" data-name="Trazado 873872" d="M56.5,317.414l-.846-.984,6.907-5.936-.466-4.789,2.716-6.546,1.5.439a2.109,2.109,0,0,1,1.509,2.292l-.577,3.651-1.282-.2.577-3.651a.814.814,0,0,0-.591-.844l-.384-.112L63.418,305.9l.5,5.136Z" transform="translate(-50.84 -273.282)"/>
        <path id="Trazado_873873" data-name="Trazado 873873" d="M73.547,52.223h-1.3V48.529A11.007,11.007,0,0,1,75,41.257l.974.857a9.71,9.71,0,0,0-2.427,6.415Zm20.76-2.689-19.056-8.62.755-.664a11.018,11.018,0,0,1,18.3,8.278ZM77.673,40.585,92.956,47.5a9.719,9.719,0,0,0-15.283-6.913Z" transform="translate(-66 -34.256)"/>
        <path id="Trazado_873874" data-name="Trazado 873874" d="M66.225,152.254l-1.193-.769a8.415,8.415,0,0,1-3.888-7.016l-.143.57h-.507a3.248,3.248,0,0,1-3.244-3.244v-1.3a1.949,1.949,0,0,1,1.946-1.946h2c.126-.656.457-1.05.938-1.084.687-.049,1.964-.139,3.887,13.381Zm-3.784-12.645v4.782A7.1,7.1,0,0,0,64.5,149.4,54.57,54.57,0,0,0,62.441,139.608Zm-3.244.24a.649.649,0,0,0-.649.649v1.3A1.95,1.95,0,0,0,60,143.679l.957-3.83Zm18.1,6.083-.328-.2c-.387-.235-.45-.272-.273-5.886H68.281a3.9,3.9,0,0,1-3.893-3.893v-3.244h1.3v3.244a2.6,2.6,0,0,0,2.6,2.6H79.958A1.949,1.949,0,0,1,81.9,140.5v1.3a3.248,3.248,0,0,1-3.244,3.244h-.67c-.037.391-.134.576-.366.706Zm.718-2.19h.649a1.948,1.948,0,0,0,1.946-1.946v-1.3a.649.649,0,0,0-.649-.649H78.011Z" transform="translate(-52.299 -121.233)"/>
        <path id="Trazado_873875" data-name="Trazado 873875" d="M73.548,276.578h-1.3V263.657h1.3Z" transform="translate(-66.001 -240.85)"/>
        <path id="Trazado_873876" data-name="Trazado 873876" d="M34.558,394.467H29.47L27.886,385.3l1.063.4c2.913,1.106,5.609,2.573,5.609,5.8Zm-4-1.3h2.7V391.5c0-2-1.443-3.166-3.7-4.151Zm-4.439,1.3H0V391.5c0-3.212,2.7-4.684,5.608-5.8l6.2-2.367.463,1.212-6.2,2.367C3.205,388.01,1.3,389.208,1.3,391.5v1.669H26.124Z" transform="translate(0 -350.178)"/>
        <path id="Línea_566" data-name="Línea 566" d="M-6.116,3.948l-1.279-.217.844-4.983,1.279.217Z" transform="translate(27.178 39.801)"/>
        <path id="Trazado_873877" data-name="Trazado 873877" d="M354.136,0a7.137,7.137,0,0,1,1.8,14.044,3.244,3.244,0,0,1-6.023-1.158A7.137,7.137,0,0,1,354.136,0Zm-1.016,14.372a1.95,1.95,0,0,0,1.778-1.154l.135-.3.323-.069a5.84,5.84,0,1,0-4.467-.858l.274.184.013.33A1.94,1.94,0,0,0,353.121,14.371Z" transform="translate(-316.984 0)"/>
        <path id="Elipse_11637" data-name="Elipse 11637" d="M-5.554-7.5A1.949,1.949,0,0,1-3.607-5.554,1.949,1.949,0,0,1-5.554-3.607,1.949,1.949,0,0,1-7.5-5.554,1.949,1.949,0,0,1-5.554-7.5Zm0,2.6A.649.649,0,0,0-4.9-5.554.649.649,0,0,0-5.554-6.2a.649.649,0,0,0-.649.649A.649.649,0,0,0-5.554-4.9Z" transform="translate(38.447 23.698)"/>
        <path id="Trazado_873878" data-name="Trazado 873878" d="M393.3,76.3H392V75h1.3Z" transform="translate(-358.091 -68.512)"/>
      </g>
    </g>
  </g>
</svg>
