<svg xmlns="http://www.w3.org/2000/svg" xmlns:xlink="http://www.w3.org/1999/xlink" width="102" height="102" viewBox="0 0 102 102">
  <defs>
    <filter id="Rect치ngulo_401378" x="0" y="0" width="102" height="102" filterUnits="userSpaceOnUse">
      <feOffset input="SourceAlpha"/>
      <feGaussianBlur stdDeviation="2" result="blur"/>
      <feFlood flood-opacity="0.251"/>
      <feComposite operator="in" in2="blur"/>
      <feComposite in="SourceGraphic"/>
    </filter>
  </defs>
  <g id="Grupo_1099768" data-name="Grupo 1099768" transform="translate(6923 9278)">
    <g id="Grupo_1099627" data-name="Grupo 1099627" transform="translate(-7944.781 -11238)">
      <g id="Grupo_1099558" data-name="Grupo 1099558" transform="translate(1027.781 1966)">
        <g transform="matrix(1, 0, 0, 1, -6, -6)" filter="url(#Rect치ngulo_401378)">
          <g id="Rect치ngulo_401378-2" data-name="Rect치ngulo 401378" transform="translate(6 6)" fill="#a1c0f9" stroke="#fff" stroke-width="3">
            <path d="M29,0H61A29,29,0,0,1,90,29V61A29,29,0,0,1,61,90H0a0,0,0,0,1,0,0V29A29,29,0,0,1,29,0Z" stroke="none"/>
            <path d="M29,1.5H61A27.5,27.5,0,0,1,88.5,29V61A27.5,27.5,0,0,1,61,88.5H1.5a0,0,0,0,1,0,0V29A27.5,27.5,0,0,1,29,1.5Z" fill="none"/>
          </g>
        </g>
      </g>
    </g>
    <g id="calidad" transform="translate(-6906.999 -9261.993)">
      <g id="Grupo_1099750" data-name="Grupo 1099750" transform="translate(9.719 9.634)">
        <g id="Grupo_1099747" data-name="Grupo 1099747" transform="translate(0 0)">
          <path id="Trazado_873799" data-name="Trazado 873799" d="M22.853,15.222C19.827,21.939,12.606,32.015,17.865,38.4a6.23,6.23,0,0,0,9.975,0C33.16,31.941,25.527,21.158,22.853,15.222Z" transform="translate(-16 -15.222)" fill="#4fc0e8" fill-rule="evenodd"/>
        </g>
        <g id="Grupo_1099748" data-name="Grupo 1099748" transform="translate(9.098 4.752)">
          <path id="Trazado_873800" data-name="Trazado 873800" d="M111.968,61.413c-3.326,7.383-11.263,18.458-5.482,25.474a6.847,6.847,0,0,0,10.964,0c5.848-7.1-2.542-18.949-5.482-25.474Z" transform="translate(-104.436 -61.413)" fill="#66d4f1" fill-rule="evenodd"/>
        </g>
        <g id="Grupo_1099749" data-name="Grupo 1099749" transform="translate(16.454 5.016)">
          <path id="Trazado_873801" data-name="Trazado 873801" d="M0,0H2.95V5.694H0Z" transform="translate(16.089 18.183) rotate(-45)" fill="#cad0d7" fill-rule="evenodd"/>
          <circle id="Elipse_11630" data-name="Elipse 11630" cx="10.555" cy="10.555" r="10.555" fill="#e4e8eb"/>
          <circle id="Elipse_11631" data-name="Elipse 11631" cx="8.045" cy="8.045" r="8.045" transform="matrix(0.987, -0.16, 0.16, 0.987, 1.322, 3.905)" fill="#a4d4ff"/>
          <path id="Trazado_873802" data-name="Trazado 873802" d="M363.47,253.1l1.594-1.594a1.358,1.358,0,0,1,1.914,0l7.324,7.324a1.358,1.358,0,0,1,0,1.914l-1.594,1.594a1.358,1.358,0,0,1-1.914,0l-7.324-7.324A1.358,1.358,0,0,1,363.47,253.1Z" transform="translate(-343.824 -231.859)" fill="#a9b0bb" fill-rule="evenodd"/>
        </g>
      </g>
      <path id="Trazado_873803" data-name="Trazado 873803" d="M31.491,24.3l1.884,3.768a.721.721,0,0,0,1.069.259L41.178,23.4a.72.72,0,0,0-.85-1.163l-6.046,4.42-1.5-3.007a.72.72,0,0,0-1.288.645Zm-2.088.986a7.324,7.324,0,1,1,7.324,7.324A7.332,7.332,0,0,1,29.4,25.284Zm-1.44,0a8.765,8.765,0,1,1,8.765,8.765,8.775,8.775,0,0,1-8.765-8.765ZM25.969,39.041a.791.791,0,0,0,.1.006.72.72,0,0,0,.094-1.434,2.262,2.262,0,0,1-1.389-.89c-.869-1.055-1.106-2.552-.724-4.576a.72.72,0,1,0-1.415-.267c-.46,2.435-.114,4.373,1.028,5.759A3.657,3.657,0,0,0,25.969,39.041Zm-9.752-6.9a.72.72,0,1,0,.189-1.427,2,2,0,0,1-1.222-.787c-.778-.944-.989-2.289-.645-4.11a.72.72,0,1,0-1.415-.267c-.423,2.235-.1,4.016.948,5.292a3.391,3.391,0,0,0,2.144,1.3Zm-4.077.294C10.4,30.315,10,27.539,10.93,23.944a49.807,49.807,0,0,1,4.236-9.795c.5-.957.976-1.879,1.409-2.761.375.75.8,1.549,1.23,2.376a60.272,60.272,0,0,1,3.867,8.4c-1.974,4.027-3.715,8.348-3.565,12.272a5.519,5.519,0,0,1-5.966-2Zm7.939-2.341a54.812,54.812,0,0,1,4.662-10.781c.57-1.1,1.119-2.156,1.612-3.163.39.783.826,1.618,1.28,2.482a11.267,11.267,0,0,0,5.318,17.279,7.862,7.862,0,0,1-1.676,3.573,6.129,6.129,0,0,1-9.852,0c-1.932-2.344-2.371-5.416-1.344-9.391Zm6.814-4.806a9.834,9.834,0,1,1,9.834,9.834A9.846,9.846,0,0,1,26.893,25.284ZM45.212,32.7a11.313,11.313,0,0,1-1.067,1.067L45.573,35.2l1.067-1.067Zm3.158,2a.633.633,0,0,0-.448.185l-1.594,1.594a.634.634,0,0,0,0,.9L53.652,44.7a.634.634,0,0,0,.9,0L56.142,43.1a.637.637,0,0,0,0-.9l-7.324-7.324A.633.633,0,0,0,48.37,34.7ZM11.029,33.347c-4.572-5.548-.451-13.484,2.86-19.861.754-1.451,1.465-2.822,2.027-4.068a.72.72,0,0,1,1.313,0c.484,1.074,1.148,2.339,1.852,3.678a71.817,71.817,0,0,1,3.48,7.3c.3-.592.605-1.175.9-1.746.829-1.6,1.611-3.1,2.23-4.476a.72.72,0,0,1,1.313,0c.438.972,1.011,2.087,1.631,3.271A11.269,11.269,0,0,1,46.1,31.548l1.774,1.774a2.072,2.072,0,0,1,1.966.543l7.324,7.324a2.078,2.078,0,0,1,0,2.933l-1.594,1.594a2.076,2.076,0,0,1-2.933,0L45.31,38.392a2.073,2.073,0,0,1-.543-1.966l-1.774-1.774a11.263,11.263,0,0,1-8.654,1.65A9.393,9.393,0,0,1,32.387,40.4a7.567,7.567,0,0,1-12.075,0,9.455,9.455,0,0,1-2.056-4.511,6.616,6.616,0,0,1-1.671.216,7.223,7.223,0,0,1-5.556-2.756Zm47.56,18.961-4.9,4.9a3.992,3.992,0,0,1-5.64,0l-1.571-1.571a5.437,5.437,0,0,0-7.677,0l-1.571,1.571a3.992,3.992,0,0,1-5.64,0l-1.571-1.571a5.437,5.437,0,0,0-7.677,0l-1.571,1.571a3.992,3.992,0,0,1-5.64,0l-4.9-4.9A.72.72,0,1,0,9.21,53.325l4.9,4.9a5.434,5.434,0,0,0,7.677,0l1.571-1.571a4,4,0,0,1,5.64,0l1.571,1.571a5.435,5.435,0,0,0,7.677,0l1.571-1.571a4,4,0,0,1,5.64,0l1.571,1.571a5.435,5.435,0,0,0,7.677,0l4.9-4.9a.72.72,0,1,0-1.018-1.018ZM9.21,45.961a.72.72,0,0,1,1.018-1.018l4.9,4.9a4,4,0,0,0,5.64,0l1.571-1.572a5.437,5.437,0,0,1,7.677,0l1.571,1.572a4,4,0,0,0,5.64,0L38.8,48.271a5.437,5.437,0,0,1,7.677,0l1.571,1.572a4,4,0,0,0,5.64,0l4.9-4.9a.72.72,0,0,1,1.018,1.018l-4.9,4.9a5.438,5.438,0,0,1-7.677,0L45.459,49.29a4,4,0,0,0-5.64,0l-1.571,1.572a5.437,5.437,0,0,1-7.677,0L29,49.29a4,4,0,0,0-5.64,0l-1.571,1.572a5.437,5.437,0,0,1-7.677,0Z" fill-rule="evenodd"/>
    </g>
  </g>
</svg>
